<svg id="Слой_1" data-name="Слой 1" xmlns="http://www.w3.org/2000/svg" viewBox="0 0 433.09 420.17"><defs><style>.cls-1{fill:#fff;}</style></defs><title>logo-1</title><path class="cls-1" d="M300,267.88A151.39,151.39,0,0,0,150.66,394.34c1.82-.12,3.65-.09,5.51-.07,11.88-68.62,71.83-121,143.8-121,80.49,0,146,65.48,146,146s-65.48,146-146,146c-71.63,0-131.37-51.87-143.65-120a32,32,0,0,1-6-2.81A151.38,151.38,0,1,0,300,267.88Z" transform="translate(-81.52 -211.11)"/><path class="cls-1" d="M345.79,457.18l-.08-.08Z" transform="translate(-81.52 -211.11)"/><path class="cls-1" d="M318.56,461.53a7.44,7.44,0,0,0-2.95.12c3.08.42,5.2,2.36,6.87,4.76,2.19,3.16,4.16,6.49,6,9.45C328.53,471.57,322.9,463.06,318.56,461.53Z" transform="translate(-81.52 -211.11)"/><path class="cls-1" d="M166.2,435c.46-.33.94-.63,1.47-1l1.53-1c.51-.33,1-.69,1.53-1s1-.74,1.48-1.13a23.28,23.28,0,0,0,2.79-2.57,20.82,20.82,0,0,0,2.26-3.06,43.63,43.63,0,0,0,3.15-6.72.09.09,0,0,0,0-.1.07.07,0,0,0-.1,0,58.12,58.12,0,0,1-3.65,6.33,20.81,20.81,0,0,1-5.09,5.12c-1.94,1.44-4,2.62-6.09,3.92a17.57,17.57,0,0,0-4.62,4.44c.09.74.2,1.48.31,2.22.14-.25.26-.47.41-.69A16.16,16.16,0,0,1,166.2,435Z" transform="translate(-81.52 -211.11)"/><path class="cls-1" d="M242.27,419.21c3.15,1,4.23,3.43,6.94,5.25s5.13,3.07,7.09,5.58,4.74,6.51,5.83,9.42c0,0,.71-1.22.74-1.23s0,0,0-.06h0c-.2-.75-.42-1.5-.67-2.24s-.58-1.46-.88-2.2a24.35,24.35,0,0,0-2.43-4.17,17.41,17.41,0,0,0-1.52-1.93,24.14,24.14,0,0,0-1.71-1.8,30.74,30.74,0,0,0-3.93-3.14,35.68,35.68,0,0,0-4.45-2.46c-.77-.36-1.58-.64-2.36-1s-1.62-.53-2.43-.78-1.64-.42-2.47-.62l-2.49-.43-2.52-.25c-.83-.06-1.67-.08-2.51-.09h0s-.05,0-.05,0,0,.05.05.05A47,47,0,0,1,242.27,419.21Z" transform="translate(-81.52 -211.11)"/><path class="cls-1" d="M340.39,525.08l0,0h0Z" transform="translate(-81.52 -211.11)"/><polygon class="cls-1" points="235.06 259.23 235.06 259.23 235.06 259.23 235.06 259.23"/><path class="cls-1" d="M283.27,510.12h0l0,0Z" transform="translate(-81.52 -211.11)"/><path class="cls-1" d="M259.86,530.25l0,0,0,0Z" transform="translate(-81.52 -211.11)"/><path class="cls-1" d="M211.5,400.26h0Z" transform="translate(-81.52 -211.11)"/><path class="cls-1" d="M362.62,308.22c-.83.9-.71.89-1.64.25a9.08,9.08,0,0,1-1.16-1.16l-.37-.33c-.08-.06-.2-.1-.25-.19a7.84,7.84,0,0,0-1.67-1.53c-.12-.1-.19-.27-.31-.38a4.16,4.16,0,0,0-.49-.39c0,.34.09.56.11.77.05.69-.38,1.07-1,.81a11.55,11.55,0,0,1-1.69-1,5.34,5.34,0,0,1-.69-.62c-.43.88-1.15,1.55-1.15,2.56,0,.16.13.32.17.48a7.94,7.94,0,0,1,.24,1.05c.15,1.15-.13,2.33.24,3.48a2,2,0,0,1,.06.74,2.81,2.81,0,0,0,.25,1.34c.08.18,0,.44,0,.67s-.06.23,0,.32a2.33,2.33,0,0,0,.44.69,3.76,3.76,0,0,1,1.2,2.09c.1.38.22.76.29,1.15a3.31,3.31,0,0,0,1,1.68,2.25,2.25,0,0,1,.43,1.51c0,.13-.33.37-.51.38a1.07,1.07,0,0,1-.67-.28c-.1-.08-.1-.31-.14-.48a1.59,1.59,0,0,0-.07-.38,11.29,11.29,0,0,0-1.44-2.55,3.87,3.87,0,0,1-1-1.81,1.56,1.56,0,0,0-.26-.47l-.85-1.22c-.05-.07-.1-.2-.16-.21-.5-.1-.56-.5-.66-.89a1.79,1.79,0,0,0-.93-1.4,2.79,2.79,0,0,0-.65,1.94c.06.36-.15.56-.52.6l-.31,0c-.59,0-.72.16-.66.77a4.57,4.57,0,0,1-.31,2.16,2.45,2.45,0,0,0-.11,1.77,2.22,2.22,0,0,1,.08.63c0,.35-.18.51-.5.62s-.71.3-1.06.46c-.11.05-.2.13-.31.18a.59.59,0,0,1-.79-.13.61.61,0,0,1,.13-.82,1.36,1.36,0,0,1,.43-.27,1.1,1.1,0,0,0,.81-1.33c0-.62-.11-1.24-.11-1.86a11.69,11.69,0,0,1,.11-1.56c0-.31.16-.61,0-.91a.52.52,0,0,1,0-.39c.32-1.38.67-2.76,1-4.15a7.08,7.08,0,0,0,.1-1.13,1.41,1.41,0,0,1,.48-1.16c.09-.07.11-.23.15-.36.1-.31.19-.63.28-.94a4.56,4.56,0,0,1-.59.15c-.54.08-.84-.2-.74-.72a3.58,3.58,0,0,1,.67-1.71,1.89,1.89,0,0,0,.33-.83,2.12,2.12,0,0,1,1.67-1.74c.17-.06.34-.07.5-.12.52-.18.52-.26.45-.79a4.56,4.56,0,0,1,0-1.33c.07-.48.61-.69,1.37-.63s1.11.38,1.1.83a9,9,0,0,1-.18,1.55c-.08.43,0,.66.44.73a2.21,2.21,0,0,1,1.41,1,2.35,2.35,0,0,0,.64.53,1,1,0,0,0-.57-.89.29.29,0,0,1-.12-.1,1.52,1.52,0,0,1-.06-1.36,1,1,0,0,1,1.05-.57.84.84,0,0,1,.79.72,1.3,1.3,0,0,0,.61.82,1,1,0,0,1,.36.5,1,1,0,0,0,1,.62,1.19,1.19,0,0,1,1.23.33c.15.19.85.14,1,0-.11-.15-.2-.29-.29-.43s-.07-.19-.13-.27a1.33,1.33,0,0,1-.36-1.33,1.51,1.51,0,0,1,1.37-1,1.17,1.17,0,0,1,1.22.75,2,2,0,0,0,.94,1,4,4,0,0,1,2,2.09c.29.82.64,1.61,1,2.42,0,.05.07.13.12.14.51.1.55.55.67.92s.19.89.37,1.3a2.14,2.14,0,0,1,0,1.65,7.36,7.36,0,0,0-.08,3.95,3.78,3.78,0,0,1,.05.67l-.1,0a8.31,8.31,0,0,0,.69.52,2.8,2.8,0,0,1,1.22,1.64c.1.32.21.63.3.95a4.74,4.74,0,0,0,1.48,2.13c.44.41.39.73-.09,1.09s-.71.63-1.08.92-.52.46-.84.18-.12-.61.06-.86a1.8,1.8,0,0,0-.07-2.19,19.86,19.86,0,0,0-3.09-3.63.39.39,0,0,0-.25-.08.6.6,0,0,0-.23,0c-1,0-1,0-1.38-.95-.23,1.28-1,.61-1.69.46a4.47,4.47,0,0,1,.11.73c0,.67,0,1.34,0,2s-.16,1.41-.21,2.12a2.34,2.34,0,0,0,.12.56,3.63,3.63,0,0,1,.18.76c0,.62-.21.79-.83.77a7.17,7.17,0,0,0-1.28.18,6.54,6.54,0,0,1-.85.14c-.27,0-.55-.09-.56-.38s.23-.34.35-.5a.14.14,0,0,1,.11,0,2.08,2.08,0,0,0,1.57-1.34.45.45,0,0,0,0-.26,25.28,25.28,0,0,0-.5-4.75,1.58,1.58,0,0,1,.18-1.48,2.87,2.87,0,0,0,.38-1.11,3,3,0,0,1,.92-1.54c.43-.43.9-.84.84-1.54a.24.24,0,0,1,0-.14c.37-.41.05-.8,0-1.2a4.53,4.53,0,0,1-.05-.53C362.67,308.49,362.65,308.39,362.62,308.22Zm-2.57-2.46,1.32,1.23.18-.09v-1.53Z" transform="translate(-81.52 -211.11)"/><path class="cls-1" d="M257.57,285.6a2.28,2.28,0,0,1,0,.26c0,.19-.2.37,0,.57a.11.11,0,0,1,0,.07c0,.33.19.53.4.73a1.56,1.56,0,0,1,.44.74,1.33,1.33,0,0,0,.18.53.73.73,0,0,1,.09.71,11.61,11.61,0,0,0-.24,2.28.16.16,0,0,0,0,.12c.17.32.36.6.75.64a.05.05,0,0,1,.05,0c.07.08.17.16.17.24s-.14.19-.26.18-.27-.05-.41-.07a3.3,3.3,0,0,0-.61-.08c-.3,0-.42-.07-.4-.37a1.76,1.76,0,0,1,.08-.37.82.82,0,0,0,.06-.26c0-.34-.08-.68-.1-1s0-.64,0-1a2.93,2.93,0,0,1,0-.35c-.33.07-.69.39-.81-.22-.18.47-.18.47-.66.45h-.11s-.09,0-.12,0a9.87,9.87,0,0,0-1.48,1.74.87.87,0,0,0,0,1c.09.12.18.28,0,.41s-.29,0-.41-.09-.33-.3-.51-.44-.25-.32,0-.52a2.26,2.26,0,0,0,.7-1l.15-.45a1.36,1.36,0,0,1,.58-.79,2.6,2.6,0,0,0,.33-.25l-.05,0a1.82,1.82,0,0,1,0-.32,3.57,3.57,0,0,0,0-1.89,1,1,0,0,1,0-.79c.08-.2.1-.42.17-.62s.08-.4.32-.45c0,0,.05,0,.06-.06.16-.39.32-.77.46-1.16a1.9,1.9,0,0,1,.95-1,1,1,0,0,0,.45-.47.56.56,0,0,1,.59-.36.72.72,0,0,1,.65.47.65.65,0,0,1-.17.64.75.75,0,0,0-.06.13l-.14.21c.06.05.39.08.47,0s.37-.18.59-.16a.47.47,0,0,0,.47-.3.46.46,0,0,1,.17-.24.61.61,0,0,0,.29-.39.41.41,0,0,1,.38-.34.48.48,0,0,1,.5.27.71.71,0,0,1,0,.65.1.1,0,0,1-.06.05c-.18.07-.23.24-.27.42a1.1,1.1,0,0,0,.31-.25,1,1,0,0,1,.67-.47c.21,0,.25-.15.21-.35a4.78,4.78,0,0,1-.08-.75c0-.21.22-.37.52-.39s.63.07.66.3a2.68,2.68,0,0,1,0,.63c0,.26,0,.3.21.38.08,0,.16,0,.24.06a1,1,0,0,1,.8.83.83.83,0,0,0,.16.4,1.67,1.67,0,0,1,.32.82c0,.25-.1.38-.35.35l-.29-.07c.05.14.09.29.14.45s0,.13.07.16a.71.71,0,0,1,.23.56,3.19,3.19,0,0,0,.05.54c.15.67.31,1.33.47,2a.31.31,0,0,1,0,.19c-.1.14,0,.28,0,.43a4.73,4.73,0,0,1,.05.75c0,.3,0,.59-.05.89a.53.53,0,0,0,.39.64.67.67,0,0,1,.21.13.31.31,0,0,1,.06.39.29.29,0,0,1-.38.06l-.15-.08a4.61,4.61,0,0,0-.51-.22c-.15-.06-.24-.13-.24-.3a1.45,1.45,0,0,1,0-.3,1.19,1.19,0,0,0-.05-.85,2.17,2.17,0,0,1-.15-1c0-.29,0-.34-.32-.36l-.15,0a.25.25,0,0,1-.25-.29,1.31,1.31,0,0,0-.31-.93.86.86,0,0,0-.44.67c0,.19-.08.38-.32.43,0,0-.05.06-.07.1s-.28.38-.41.58a.76.76,0,0,0-.13.23,1.83,1.83,0,0,1-.48.87,5.41,5.41,0,0,0-.69,1.22.52.52,0,0,0,0,.18c0,.08,0,.19-.07.23a.5.5,0,0,1-.32.13c-.09,0-.24-.12-.24-.18a1.08,1.08,0,0,1,.2-.72,1.56,1.56,0,0,0,.47-.81,4.92,4.92,0,0,1,.14-.55,1.84,1.84,0,0,1,.57-1,1.06,1.06,0,0,0,.22-.33s0-.1,0-.16-.05-.23,0-.31a1.45,1.45,0,0,0,.12-.65,1,1,0,0,1,0-.35,8.48,8.48,0,0,0,.12-1.67,4.48,4.48,0,0,1,.11-.5c0-.08.08-.15.08-.23,0-.48-.34-.81-.54-1.22a3.8,3.8,0,0,1-.33.29,6.15,6.15,0,0,1-.81.48c-.3.13-.51-.06-.49-.39,0-.1,0-.2.06-.36a2.11,2.11,0,0,0-.24.18c-.06.05-.09.13-.15.18a3.75,3.75,0,0,0-.8.74s-.08.06-.12.09L259,285a4.93,4.93,0,0,1-.56.56c-.44.31-.39.31-.79-.12A1.39,1.39,0,0,1,257.57,285.6Zm.55-1.54v.74l.08,0,.63-.59Z" transform="translate(-81.52 -211.11)"/><path class="cls-1" d="M212.68,309.28c1.14.4,2.28.82,3.43,1.18a2.69,2.69,0,0,0,1.06,0c1.16-.13,2.05-.44,1.63-2-.06-.22.59-.88.95-.91a1.39,1.39,0,0,1,1.11.76c.23.79.38,1.45,1.42,1.44.24,0,.52.39.71.65.39.53.71,1.09,1.08,1.63.56.83.32,1.5-.53,1.75.82,1.36,1.72,2.71,2.47,4.13,1.15,2.19,2.18,4.44,3.32,6.63.35.68.95,1.23,1.35,1.89.13.22,0,.61,0,.93-.36-.11-.86-.1-1-.34-1.13-1.53-2.15-3.15-3.3-4.66-.26-.36-.89-.44-1.34-.66a3.81,3.81,0,0,1-1.17-.6c-.56-.56-1-1.23-1.74-2.11-.15.89-.25,1.45-.32,2s-.36,1-1.11.87a1.74,1.74,0,0,0-2.18,1.36,11.61,11.61,0,0,1-1.1,2c-.29.52-.78,1-.82,1.56-.1,1.47-1.21,1.45-2.14,1.56a7.85,7.85,0,0,1-2.31-.19c-.2,0-.42-.45-.46-.71-.14-.87-.19-1.74-.28-2.61s-.19-1.67-.29-2.56l-1.1-.28c-.08.14-.18.46-.39.57-2.15,1.16-2.13,3.38-2.54,5.34-.1.44.54,1,.87,1.59-.88.52-1.54-.08-2.14-.46-.19-.12,0-.82,0-1.25a7.45,7.45,0,0,1,.34-2.63c1.29-2.52.72-5.22,1-7.83.18-1.6.24-3.22.34-4.83a3.23,3.23,0,0,1,1.86-3.05,2,2,0,0,0,.79-1.29c.32-1.18,1.2-1.73,2.12-1,.42.32.46,1.13.67,1.72Zm.46,3.2c.42,0,1-.21,1.32,0a1.48,1.48,0,0,1,.65,1.14c0,.56-.41.74-1,.53a7.53,7.53,0,0,0-1.73-.15c-.75-.08-.93.32-.77.95.26,1,.57,2.06.84,3.1a9.72,9.72,0,0,1,.52,4.88,8.21,8.21,0,0,0,0,3.2,2.43,2.43,0,0,0,1.16,1.34c.19.11.88-.32,1.12-.66a11.31,11.31,0,0,0,1.2-2.22c.85-2.09,1.66-4.19,2.46-6.3s.18-4.2-1.12-6a.9.9,0,0,0-.54-.31c-1.16-.23-2.33-.43-3.48-.63Z" transform="translate(-81.52 -211.11)"/><path class="cls-1" d="M325.65,292c-.28,1.47-.55,2.81-.77,4.15a2.84,2.84,0,0,0,.08,1c.13.7,0,.92-.72.94s-1.37.15-2.06.15c-.24,0-.48-.24-.73-.36.2-.17.36-.4.59-.48,1.31-.48,1.73-.93,1.69-2.29s-.39-2.51-.33-3.74a18.4,18.4,0,0,1,.71-3.56c.28-1.17.66-2.32.95-3.49.15-.59,0-.95-.76-.89s-1.41-.24-2.08.24c-.1.07-.69-.29-.79-.55a.89.89,0,0,1,.63-1.28,11.45,11.45,0,0,1,1.52.14c-.2-.52-1.22-.81-.55-1.62a1.36,1.36,0,0,1,2-.28c-.91-.53-1-1.43-1.19-2.25a1,1,0,0,1,.69-1.36c.91-.27,1.63-.15,1.73.54a3.5,3.5,0,0,0,2,2.59,2.59,2.59,0,0,1,1,2.68c-.28,1.94.4,3.75.47,5.63.06,1.37,0,2.75.06,4.13a3.19,3.19,0,0,0,.13.82c.31,1.05.66,2.09.93,3.15a14.39,14.39,0,0,1,.37,2.26.91.91,0,0,1-.29.76c-.64.32-1.3.76-2.14.31.11-.19.16-.39.27-.45.89-.51.86-1.28.61-2.09a26.17,26.17,0,0,0-1-3c-.27-.61-.53-1.3-1.4-1.46-.25-.05-.39-.69-.51-.91C326.66,292.13,326,292,325.65,292Z" transform="translate(-81.52 -211.11)"/><path class="cls-1" d="M306.29,284.52c-1.06.34-1.52-.09-1.27-1.17a9.19,9.19,0,0,1,.73-2.35,3,3,0,0,1,1.4-1.14c.44-.2.63-.36.5-.83a.7.7,0,0,1,0-.32c.11-.45.14-1.2.37-1.27a3.17,3.17,0,0,1,1.72.11c.16,0,.25.62.23.94-.07,1.13-.05,1,1,1.42a5.32,5.32,0,0,0,2.86.57c.94-.15,1.86-.42,2.8-.59a2,2,0,0,1,1.25,0,1.15,1.15,0,0,1,.36,1.06c-.2.3-.89.63-1.11.51-.69-.41-1.29-.08-1.88.06a6.92,6.92,0,0,1-3.75-.07c-.88-.26-1.1-.1-1.22.76a6.08,6.08,0,0,1-.4,1.59c-.63,1.41.19,2.76.08,4.15a21.29,21.29,0,0,1-.19,3,9,9,0,0,1-1.09,2.46,1.41,1.41,0,0,0,.09,1.74,2.85,2.85,0,0,1,.26.9,5.3,5.3,0,0,1-.95-.4c-.15-.08-.21-.3-.36-.55a2,2,0,0,0,.79,2.72,2.58,2.58,0,0,1,.44.53c-.23.13-.48.4-.67.35a10.22,10.22,0,0,1-1.84-.62c-.11-.05-.16-.37-.17-.56,0-.95,0-1.9,0-2.85,0-.11-.08-.23-.05-.33.46-1.72,0-3.42-.07-5.13a12.5,12.5,0,0,1,.25-4.18C306.43,284.91,306.32,284.71,306.29,284.52Z" transform="translate(-81.52 -211.11)"/><path class="cls-1" d="M320,470.6H320a20.54,20.54,0,0,1-2.94-.52c-.21.16-.51.33-.74.47a18.8,18.8,0,0,0,3.52.83,9.53,9.53,0,0,0,1.21.18A10,10,0,0,1,320,470.6Z" transform="translate(-81.52 -211.11)"/><rect class="cls-1" x="316.18" y="593.17" width="8.06" height="24.81" transform="translate(-153.95 -166.87) rotate(-7.1)"/><polygon class="cls-1" points="94.01 353.87 96.25 355.82 99.04 350.39 94.01 353.87"/><rect class="cls-1" x="195.15" y="578.45" width="24.78" height="7.07" transform="translate(-480.42 252.51) rotate(-59.33)"/><rect class="cls-1" x="143.37" y="506.03" width="8.64" height="6.08" transform="translate(-307.32 -78.17) rotate(-28.62)"/><polygon class="cls-1" points="39.76 267.32 38.99 265.42 38.25 263.59 37.27 263.94 36.5 265.37 36.87 266.27 37.43 266.08 39.11 270.24 38.51 270.45 39.04 271.74 41.81 270.76 41.29 269.47 40.71 269.68 39.76 267.32"/><path class="cls-1" d="M514.61,413.85l-6.85-5c-6.21-110.08-97.71-197.72-209.31-197.72C187.14,211.11,95.82,298.31,89.2,408l-7.67,5.85c0,.29,0,.59,0,.88,0,119.41,97.15,216.55,216.55,216.55s216.55-97.14,216.55-216.55C514.62,414.44,514.61,414.14,514.61,413.85ZM110.85,479.8a.59.59,0,0,1-.17.1.49.49,0,0,1-.44,0l-6.46-3.54a2.13,2.13,0,0,1-1-1.16l-1.39-3.78a2,2,0,0,1,0-1.61,4.49,4.49,0,0,1,2.78-2.07l.78-.26a.53.53,0,0,1,.62.28L111,479.19A.52.52,0,0,1,110.85,479.8Zm.65-.71-6.27-13.26a5.42,5.42,0,0,1,2.18-6.47,2.94,2.94,0,0,1,.66-.34L116,456.1a6.09,6.09,0,0,1,3.81-.18,5.05,5.05,0,0,1,3.39,3.25l4.07,14.11a.55.55,0,0,1-.08.45,11.1,11.1,0,0,1-2.77,2.47l-1.05-2.87a4.74,4.74,0,0,0-8.9,3.21l1.07,2.92a12.49,12.49,0,0,1-3.69-.08A.5.5,0,0,1,111.5,479.09Zm13.16-2.26a12.16,12.16,0,0,0,1.94-1.65.53.53,0,0,1,.88.17l2.26,6.13a.53.53,0,0,1-.05.46,8.94,8.94,0,0,1-2.32,2.3,1.33,1.33,0,0,0-.05-.19Zm1.1,7.54A13.43,13.43,0,0,1,123,486a11.8,11.8,0,0,1-3.13.64.74.74,0,0,1-.69-.35l-3.69-10.06a3.68,3.68,0,0,1,6.92-2.48l3.68,10A.67.67,0,0,1,125.76,484.37Zm-10.82,2.56-2.26-6.15a.48.48,0,0,1,.08-.5.5.5,0,0,1,.46-.2,14.07,14.07,0,0,0,2.56,0l2.66,7.24.06.12a14.06,14.06,0,0,1-3.18-.18A.51.51,0,0,1,114.94,486.93Zm14.28,44.88-5.1-9.35,5.88-3.21.74,1.37,5.57-8.42-.15-.29-7.83,4.28,1.15,2.11-5.88,3.21-6.16-11.3,5.87-3.21,1.29,2.36,21.74-11.88-1.26-2.31,6-3.28L161,510.14l-2,5.19-12.5,6.83-5.33-1.65L140,518.44l-5.62,8.92.68,1.24Zm6.13,9.44,5.21-4.21,1.69,2.1,19.35-15.62-1.8-2.24,5.28-4.26,15.68,19.44-8.6,6.94-4.59-5.68,3.25-2.63-4.62-5.72-6.87,5.55,3.58,4.43-5.24,4.24-3.58-4.44-7.17,5.78,4.68,5.8,4-3.19,4.53,5.61-9.16,7.39Zm41,42.85-7.58-6.58,4.4-5,1.24,1.08,1-1.92-4-3.49-1.8,1.2,1.32,1.15-4.39,5L158.94,569l4.33-5,1,.9L184.87,550l-1.25-1.08,4.48-5.23,8.54,7.43-4.46,5.12-1-.84-11.53,22.81,1,.9Zm27.65,18-18-10.69,3.35-5.74,2.43,1.44,12.69-21.39L202,564.29l3.51-5.92,18.17,10.77,1.72,5.32L209.63,601Zm47.9-13.92-1.95-.71L240,599.65,236.57,609l2.25.83-2.3,6.28-11.6-4.24,2.31-6.29,2.17.8,3.4-9.27-.49-16-1.5-.56,2.35-6.41,10,3.66-2.36,6.42-1.55-.57.2,6.44,4.21-4.78-1.59-.58,2.37-6.46,9.78,3.58Zm48.93,11.15-6.12-.32.24-4.6-2.4-.12-1.33,24.77,2.64.14-.36,6.68-12.66-.67.35-6.67,2.5.13L285,593.9l-2.4-.13-.25,4.6-6.12-.33.6-11.22,24.58,1.29Zm29.64,24.14-16.19,2-3.42-2.67-3.9-31.31,3.14-4.12,15.54-1.95,4,3.08,3.86,31Zm37.71-9.6-2.74-6.1,2.45-1.11L357.72,584.1l-2.41,1.08-2.82-6.27,22.71-10.23,4.53,10.08-6.63,3-1.71-3.8-6.88,3.1,3.62,8,5.33-2.4,2.76,6.14-5.33,2.4,3.77,8.39,2.54-1.14,2.74,6.1ZM400.48,598l-3.63-5.61,2.33-1.51-13.49-20.87-2.3,1.49-3.68-5.7,10.81-7,3.74,5.77L392,566.08l8.45,13.06,5,7.73,2.26-1.46,3.63,5.61Zm36-27.38-13.07,11.57-5.07-.32-21-23.68.32-4.4L411.09,542l4.84.27,4.91,5.54-5.55,4.91-2.61-2.94-7.27,6.44,16.41,18.53,7.21-6.38-4.37-4.93-4.6,4.06-4.55-5.15,7.52-6.66,5.1.36,8.65,9.76Zm20.06-22.5-5.29-4.09,1.73-2.24-7.28-5.62-4.13,5.34,7.29,5.62,1.64-2.13,5.29,4.09-7.9,10.23-5.23-4.16,1.64-2.13-19.67-15.18L423,540.05l-5.37-4.14,7.87-10.19,5.44,4.2-1.64,2.13,6.76,5.21,4.12-5.34-6.76-5.21-1.7,2.2-5.44-4.2,7.87-10.19,5.44,4.2L438,520.81l12.31,9.5,7.28,5.62,1.62-2.09,5.29,4.09Zm17.1-25.75-6-3,1.13-2.23L446.69,506l-1.09,2.15,4.11,2.08-2.77,5.47-10-5.08,11.12-22,10,5.07-2.77,5.47-4.1-2.07-1.09,2.14,22.13,11.19,1.2-2.35,6,3Zm-6.1-42a1.21,1.21,0,0,0-.05.18,8.94,8.94,0,0,1-2.32-2.3.51.51,0,0,1,0-.45l2.25-6.14a.53.53,0,0,1,.88-.17,12.16,12.16,0,0,0,1.94,1.65Zm4.93-10.36a3.69,3.69,0,0,1,6.93,2.48l-3.7,10.06a.71.71,0,0,1-.69.35,12.36,12.36,0,0,1-3.13-.63,13.56,13.56,0,0,1-2.78-1.59.67.67,0,0,1-.31-.67Zm9.72,7.08L480,483.28a.52.52,0,0,1-.39.33,13.35,13.35,0,0,1-3.17.18.61.61,0,0,1,.05-.12l2.66-7.24a14.07,14.07,0,0,0,2.56,0,.54.54,0,0,1,.47.2A.53.53,0,0,1,482.21,477.13Zm.81-1.4a12.45,12.45,0,0,1-3.69.08l1.07-2.92a4.74,4.74,0,0,0-8.9-3.21l-1.05,2.87a11.1,11.1,0,0,1-2.77-2.47.55.55,0,0,1-.08-.45l4.07-14.11a5.07,5.07,0,0,1,3.39-3.25,6.13,6.13,0,0,1,3.82.18l7.93,2.92a3.42,3.42,0,0,1,.66.34,5.44,5.44,0,0,1,2.19,6.47l-6.28,13.27A.51.51,0,0,1,483,475.73Zm10.48-8-1.39,3.77a2.13,2.13,0,0,1-1,1.16l-6.46,3.55a.54.54,0,0,1-.43,0,.54.54,0,0,1-.18-.11.54.54,0,0,1-.12-.61l5.42-11.46a.52.52,0,0,1,.63-.27c.21.06.48.14.77.25a4.52,4.52,0,0,1,2.78,2.07A2,2,0,0,1,493.5,467.75Zm-5.76-73.61-22.6,17a165.36,165.36,0,0,0-329-14.34,29.22,29.22,0,0,1,6.12-1.05c11.39-76.83,77.77-136,157.71-136,87.93,0,159.46,71.53,159.46,159.46a158.46,158.46,0,0,1-24.75,85.23A163.38,163.38,0,0,1,267.16,575.3,159.86,159.86,0,0,1,142,441c-8.54-3.57-18.82-4.44-23.61-13.44-4-7.45-1.8-16.57,3.45-22.79l-14.66-10.49-6.52,5C111.43,299.62,196,221.81,298.45,221.81c102.86,0,187.74,78.46,197.93,178.67Z" transform="translate(-81.52 -211.11)"/><polygon class="cls-1" points="393.12 267.13 392.72 266.99 396.01 262.55 395.96 261.47 392.36 260.16 391.58 262.31 393.02 262.83 393.29 262.08 394.26 262.44 391.18 266.43 390.72 266.26 390.26 267.51 392.67 268.39 393.12 267.13"/><path class="cls-1" d="M238.08,255.93l-4.68,1.73-.89-2.42,1-.36-3.3-8.93-1,.35-.91-2.46,7.55-2.8,1.87,1.06,1.9,5.14-.94,1.94-.85.32,3.09,2.63.51-.19.9,2.41-3.87,1.43-.89-2.41.56-.21-2.9-2.59-.12.05,1.19,3.22.87-.32Zm-2.86-11.83-2.21.82,1.15,3.11,2.21-.81Z" transform="translate(-81.52 -211.11)"/><path class="cls-1" d="M252.19,251.37l-4.72,1.36-.71-2.48.93-.26L245,240.81l-.89.26.49,1.7-2.28.66-1.2-4.16,9.16-2.64,1.2,4.16-2.28.66-.49-1.7-.9.25,2.65,9.18,1-.29Z" transform="translate(-81.52 -211.11)"/><path class="cls-1" d="M262.5,248.88l-4.89,1-.53-2.52,1-.21-2-9.32-1,.21-.54-2.59,9.43-2,.88,4.16-2.75.58-.33-1.57-2.86.59.69,3.33,2.22-.47.53,2.54-2.21.46.72,3.47,1.06-.22Z" transform="translate(-81.52 -211.11)"/><path class="cls-1" d="M274.84,244.13l.38,2.55-5,.72-.37-2.54,1.06-.16-1.38-9.46-1.05.15-.38-2.58,4.93-.72.38,2.62-1,.15.87,5.92.51,3.5Z" transform="translate(-81.52 -211.11)"/><path class="cls-1" d="M279.93,246.09l-1.5-1.27-1-12.13,1.12-1.29,6.9-.58,1.43,1.2.24,2.84-2.85.24-.13-1.51-3.75.31.8,9.5,3.72-.32-.22-2.52-2.36.2-.23-2.64,3.88-.33,1.5,1.29.42,5-1.21,1.44Z" transform="translate(-81.52 -211.11)"/><path class="cls-1" d="M295.48,239l0,3.54h1l0,2.58-5,0,.06-2.58h1l.07-9.56h-1.06l0-2.61,5,0,0,2.64h-1.05l0,3.28,2.61,0,0-3.28h-1.07l0-2.65,5,0,0,2.65h-1l0,6,0,3.55h1l0,2.58-5,0,0-2.57h1.09l0-3.54Z" transform="translate(-81.52 -211.11)"/><path class="cls-1" d="M312.43,245.67l-4.9-.32.17-2.57,1,.06.63-9.52-.92-.06-.12,1.76-2.37-.16.29-4.31,9.5.63-.28,4.32-2.37-.16.12-1.76-.93-.07-.64,9.53,1,.07Z" transform="translate(-81.52 -211.11)"/><path class="cls-1" d="M321.54,246.64l-2.76-.34.38-3.05,2.76.35Z" transform="translate(-81.52 -211.11)"/><path class="cls-1" d="M332.19,243.13l2.84.51-.69,3.77-1.55,1.08-6.23-1.14-1.12-1.62,2.19-12,1.42-.95,6.39,1.17,1.07,1.53-.51,2.8-2.82-.51.28-1.49-3.29-.6-1.71,9.37,3.27.6Z" transform="translate(-81.52 -211.11)"/><path class="cls-1" d="M338.39,249.68l-.86-1.44,3-11.76,1.72-1,5.87,1.51,1,1.67-3,11.63-1.65,1ZM346,239.16l-3-.78-2.37,9.25,3,.77Z" transform="translate(-81.52 -211.11)"/><path class="cls-1" d="M362.72,241.6l4.84,1.7-.88,2.51-.83-.29-3.15,9,.83.29-.86,2.44-4.37-1.53.86-2.45.72.25,1.8-5.11-4.81,6.81-1.83-.65.54-8.3-1.8,5.12.88.3-.86,2.45-4.71-1.66.85-2.44,1,.35,3.15-9-1-.36.89-2.52L359,240.3l-1.37,10.06Z" transform="translate(-81.52 -211.11)"/><path class="cls-1" d="M126.42,379.94a178.65,178.65,0,0,1,96.71-121.19v-7.34a184.89,184.89,0,0,0-103.5,128.53Z" transform="translate(-81.52 -211.11)"/><path class="cls-1" d="M473.53,379.94h6.79A184.86,184.86,0,0,0,373,249.7V257A178.66,178.66,0,0,1,473.53,379.94Z" transform="translate(-81.52 -211.11)"/><path class="cls-1" d="M262.58,435.93c-.24-.75-.58-1.46-.87-2.2a25.74,25.74,0,0,0-2.43-4.17,18.78,18.78,0,0,0-1.53-1.93,24.14,24.14,0,0,0-1.71-1.8,30.06,30.06,0,0,0-3.93-3.14,35,35,0,0,0-4.45-2.46c-.77-.36-1.58-.64-2.36-1s-1.62-.53-2.42-.78-1.65-.42-2.47-.62l-2.5-.43-2.51-.25c-.84-.06-1.68-.08-2.52-.09h0s0,0,0,0a0,0,0,0,0,0,.05,46.84,46.84,0,0,1,9.74,2c3.15,1,5.15,3.18,7.86,5s5.05,3.24,7,5.75a37.81,37.81,0,0,1,5.25,9s.46-.72.49-.73,0,0,0-.06h0C263.05,437.42,262.83,436.67,262.58,435.93Z" transform="translate(-81.52 -211.11)"/><path class="cls-1" d="M318.91,461.53a7.44,7.44,0,0,0-3,.12c3.08.42,5.2,2.36,6.87,4.76,2.2,3.16,4.16,6.49,6,9.45C328.89,471.57,323.25,463.06,318.91,461.53Z" transform="translate(-81.52 -211.11)"/><path class="cls-1" d="M315,520.3Z" transform="translate(-81.52 -211.11)"/><path class="cls-1" d="M312.28,519.56a1.2,1.2,0,0,0-.12.35l0,.14v.13a1.17,1.17,0,0,0,.05.37,1.53,1.53,0,0,0,.27.52,1.43,1.43,0,0,0,.62.44,1.91,1.91,0,0,0,.41.11,1,1,0,0,0,.4,0h.23a1,1,0,0,0,.18-.07,1.38,1.38,0,0,0,.31-.2,1.32,1.32,0,0,0,.34-.49c0-.08,0-.16.06-.23s0-.08,0-.07h0v-.18h0v.05a1.69,1.69,0,0,0,0-.45,1.47,1.47,0,0,0-.23-.55l-.11-.13-.12-.12s-.13-.08-.21-.12h0l0,0-.09,0a1.85,1.85,0,0,0-.42-.11,2,2,0,0,0-.42,0,1.49,1.49,0,0,0-.7.3A1.52,1.52,0,0,0,312.28,519.56Z" transform="translate(-81.52 -211.11)"/><path class="cls-1" d="M346.14,457.18l-.08-.08Z" transform="translate(-81.52 -211.11)"/><path class="cls-1" d="M315,520.3Z" transform="translate(-81.52 -211.11)"/><path class="cls-1" d="M255,288.44l-.79.27.26-.08A3.75,3.75,0,0,0,255,288.44Z" transform="translate(-81.52 -211.11)"/><path class="cls-1" d="M217.7,308.89c.19,0,.05.36.28.28a2.27,2.27,0,0,0,.4-.26l.4-.25.8-.51c.21-.14.18-.1.26,0s.12.07.17.13a6.9,6.9,0,0,0,.77-.47c-.17.14-.29-.28-.33-.35s-.06-.12-.26,0a1.51,1.51,0,0,1-.43.23c-.11,0-.19.05-.25,0s0-.26-.18-.2-.36.29-.53.31a.51.51,0,0,1-.22-.05c-.05-.06,0-.16,0-.24l-.57.42c0,.09.09.19.14.28s.12.14.07.25S217.87,308.78,217.7,308.89Z" transform="translate(-81.52 -211.11)"/><path class="cls-1" d="M250.31,290.44a2.07,2.07,0,0,0,.42-.14l.91-.31.86-.3c.18-.07.25-.11.23-.21a1.13,1.13,0,0,1-.08-.22c-.85.31-1.68.63-2.52.95l0,.05S250.22,290.43,250.31,290.44Z" transform="translate(-81.52 -211.11)"/><path class="cls-1" d="M220.66,306.47a4.62,4.62,0,0,0,.54-.33c.15-.1.38-.21.51-.32-.16,0-.13,0-.18-.09s-.09-.05-.24,0-.21.15-.31.15-.06,0-.08-.06l-.53.37s.07,0,.09,0S220.47,306.53,220.66,306.47Z" transform="translate(-81.52 -211.11)"/><path class="cls-1" d="M248.16,291.11a1.91,1.91,0,0,0,.51-.17.19.19,0,0,0,.09-.18l-2.43,1,.84-.32C247.5,291.32,247.84,291.19,248.16,291.11Z" transform="translate(-81.52 -211.11)"/><path class="cls-1" d="M238.49,317.23c.19-.1.11-.13.06-.23s-.07-.13-.1-.21l-.09-.23s0-.11-.05-.12-.48.2-.58.25l-.66.32-.53.27-.32.17a1.17,1.17,0,0,0-.27.19c0,.07.09.21.11.26s.15.34.22.51.05.26.16.27.39-.24.53-.21.12.22.15.3.21.26.17.35-.45.24-.54.3a1.51,1.51,0,0,0,.09.18s0,.08,0,.11,0,0,.12,0,.48-.24.7-.36l1.07-.55c.15-.08.36-.14.36-.26s-.08-.19-.1-.28c.19-.11.56-.24.55-.41s-.11-.13-.12-.21.15-.15.27-.21l1.42-.69c.25-.12.47-.16.4-.37l-.08-.29a.89.89,0,0,0-.07-.28c-.07-.09-.33.09-.47.16l-.55.27-.55.28c-.18.09-.35.14-.54.23s-.2.13-.16.24a1.72,1.72,0,0,0,.07.21.43.43,0,0,1-.11.56c-.22.14-.49.25-.72.37s-.25.13-.38.18a2,2,0,0,1-.34.14.6.6,0,0,0-.06-.19c0-.14,0-.16.17-.26l.16-.11c.07-.06,0,0,0-.11s0-.19.13-.33S238.37,317.3,238.49,317.23Z" transform="translate(-81.52 -211.11)"/><path class="cls-1" d="M346.86,296.61l-.29,1-1.17.5s-.82.69.51,1l1.36-.34s1.25.27,1.22.16.14-1.24.14-1.24a3.43,3.43,0,0,1,1-.23c.15.06.86-.35.86-.35l-.3-.87-1.13-.65c-.06.19-.12.38-.17.57l-.69-.18-.12-.28-.16-.24-.67-.26C347.13,295.67,347,296.14,346.86,296.61Z" transform="translate(-81.52 -211.11)"/><path class="cls-1" d="M209.39,315.33a.11.11,0,0,0,.15.11,2.6,2.6,0,0,0,.33-.25l.32-.23a3.33,3.33,0,0,1,.32-.24,2.6,2.6,0,0,0,.28-.15,2.8,2.8,0,0,0,.33-.24c.08-.09,0-.13,0-.19s-.08-.08.06-.21.21-.14.31-.23c.25-.24-.05-.22,0-.39s.13-.17.23-.21.08,0,.13,0,.12-.08.18-.11,0,.11.1.12.16-.08.26-.11a1.72,1.72,0,0,1,.43-.05c.07,0,0,.09.13.08s.31-.19.45-.25.29-.1.44-.16c.33-.15.49-.47.79-.67l.13-.13c.17-.14.38-.27.57-.4s.49-.28.54-.42l-.43.3c-.21.14-.26.2-.32.06s-.06-.17-.29,0-.33.27-.41.24a.56.56,0,0,1-.15-.27c0-.13.24-.19.34-.24.3-.16.61-.46.91-.6,0,.2,0,.28.32.09a1.87,1.87,0,0,1,.32-.2,1.16,1.16,0,0,0,.18,0,1.32,1.32,0,0,0,.2-.12,8.54,8.54,0,0,0,.86-.57c.13-.1.15-.12.07-.2s-.12-.07-.17-.13c-.31.14-.62.46-.92.6a.31.31,0,0,1-.28,0s0-.07-.07-.1-.1,0-.13-.07a.37.37,0,0,0-.12.07l-.17.07-.23.15c-1.79,1.4-3.55,2.83-5.27,4.31a.25.25,0,0,1,0,.12c-.05.13-.15.16-.26.27a.35.35,0,0,1-.14.41C209.53,315.19,209.4,315.22,209.39,315.33Z" transform="translate(-81.52 -211.11)"/><path class="cls-1" d="M212.76,318.43c.29-.22.58-.44.87-.64.1,0,.12.18.2.24a3.08,3.08,0,0,0,.68-.41,1.65,1.65,0,0,0,.56-.42c.11-.16,0-.28,0-.39s0-.32-.09-.34-.21.08-.31.16l-.47.31c-.29.19-.58.41-.87.62l-1.11.8c-.17.13-.33.2-.5.32s-.31.27-.46.22-.11-.19-.26-.16-.35.27-.47.38-.39.23-.34.42.07.65.3.59a3.32,3.32,0,0,0,.56-.41,1.76,1.76,0,0,0,.14.23c.11.1.18,0,.37-.12s.84-.49.85-.7-.21-.15-.1-.33A2.7,2.7,0,0,1,212.76,318.43Z" transform="translate(-81.52 -211.11)"/><path class="cls-1" d="M209,315.39c.07,0,.09.11.11.16s0-.1.08-.16a.67.67,0,0,1,0-.2c.06-.08.22-.16.3-.24a.74.74,0,0,0-.22.05l-.14.06-.59.52.2-.07A2,2,0,0,1,209,315.39Z" transform="translate(-81.52 -211.11)"/><path class="cls-1" d="M188.79,337.73l1.69-1.79.52-.54a2.46,2.46,0,0,0,.22-.25,1.09,1.09,0,0,1,.21-.27c.09-.05.2,0,.28,0s.21-.11.31,0c.3-.24.64-.64.92-.92l.23-.23a1.27,1.27,0,0,1,.2-.16c.15-.12.31-.19.45-.32.32-.27.63-.62.93-.91A1.36,1.36,0,0,1,195,332c.11-.05.1,0,.15.08s.32-.12.49-.29l.59-.56.23-.22c.14-.13.16-.14.12-.23s-.1-.08-.11-.14a.73.73,0,0,1,.06-.22c.07-.23.25-.36.46-.56l.53-.5,1.07-1a4.78,4.78,0,0,1,.48-.43,1.43,1.43,0,0,0,.26-.19,3.19,3.19,0,0,1,.32-.23,7.5,7.5,0,0,0,.6-.54l.6-.53c.1-.08.15-.11.18-.2a1,1,0,0,0,0-.24c0-.07,0-.11,0-.21s.22-.17.31-.26.22-.32.42-.37a.18.18,0,0,1,.19,0c.07.05.05.1.18,0a4.15,4.15,0,0,0,.67-.52.6.6,0,0,0,.11-.14,9.32,9.32,0,0,1,.76-.65l.32-.27a3.56,3.56,0,0,1,.31-.26c.11-.05.12,0,.16.1a.28.28,0,0,0,.17.15c.19.05.23-.08.42-.26s.22-.14.23-.23-.1-.14-.14-.16-.14,0-.08-.16l.06-.1s0-.08,0-.12.4-.39.57-.53a1.09,1.09,0,0,1,.55-.27c.08,0,.11.06.17.08s.11.07.16.07.44-.28.58-.4c.29-.22.57-.47.86-.67.07-.06.28-.14.32-.21s-.09-.15-.11-.18-.11-.34-.23-.35-.17.08-.27.14a.44.44,0,0,1-.24.1l-.11.06c-.06,0,0-.07-.07-.1s-.13-.05-.19-.11-.18.09-.27.14a2.52,2.52,0,0,1-.25.21c-.15.07-.08-.17-.29,0a2.4,2.4,0,0,0-.49.39,1.47,1.47,0,0,0,0,.21.25.25,0,0,0,0,.15,3.75,3.75,0,0,1-.5.36l-.31.25c-.15.15-.09.11-.05.21s.05.08,0,.16-.1.09-.18.13a1.88,1.88,0,0,0-.31.21c-.15.14-.25.34-.4.46s-.16,0-.22-.07-.2,0-.36.18-.33.27-.49.41-.17.16-.25.21a1.19,1.19,0,0,0-.27.17c-.16.14-.32.23-.38.11a.07.07,0,0,0,0-.08l-.05-.07c0-.1,0-.11.13-.23s.12-.19.06-.33,0-.06.08-.18.21-.16.3-.26c-.17,0-.23-.2-.32-.33s-.16-.14-.15-.21.16-.24.24-.33.06-.09.12-.15l.19-.15.37-.31.81-.67a4.91,4.91,0,0,0,.72-.64,3.81,3.81,0,0,1,.73-.64l1.57-1.24c.24-.19.5-.43.75-.59s.19-.09.26,0,0,.09.08.1.13-.06.19-.08.13,0,.24,0,.25-.2.36-.26a1.82,1.82,0,0,1,.3-.11s.08,0,.12,0,.17-.16.24-.17,0,.21.18.13A2.48,2.48,0,0,0,210,317a1.54,1.54,0,0,1,.13-.14,1.33,1.33,0,0,1,.19-.14c.16-.12.31-.18.47-.29l.38-.28.19-.15c.07,0,.08,0,.14,0a4.5,4.5,0,0,0,.8-.54l.87-.62c-.14.13-.27-.1-.24-.19a1.14,1.14,0,0,1,.22-.22l.13-.09a1.31,1.31,0,0,0,.12-.13,14.66,14.66,0,0,1,1.28-.9l.32-.22a1.82,1.82,0,0,1,.28-.14c.1,0,.23-.19.33-.23s.11.06.14.12l.21.38c0,.06.16.27.28.23a2.46,2.46,0,0,0,.34-.25c.08,0,.6-.44.66-.39-.18.11-.07.27,0,.33s.26,0,.45-.15l.52-.34.45-.3a5.51,5.51,0,0,1,.79-.5c0,.05.05.13.1.19s.09,0,.18,0,.11.26.1.38,0,.12-.13.2l-.13.08c-.06.05,0,.08-.11.12s-.45.27-.65.42-.09.08,0,.14a.32.32,0,0,1,.11.17c0,.11,0,.11-.15.21l-.32.21a7.14,7.14,0,0,0-.64.43c-.19.14-.08.11-.05.22a1,1,0,0,1-.06.32c.52-.41,1.15-.77,1.7-1.13l.91-.59a3.7,3.7,0,0,0,.72-.46c.11-.14-.14-.4-.19-.5s-.16-.18-.14-.27.21-.14.33-.2.61-.36.85-.53c.08-.07.1-.05.11-.12s-.06-.12-.08-.16a.41.41,0,0,1-.07-.11c0-.05,0-.11,0-.16l.1-.08c0-.09.07-.14-.05-.18s-.08,0-.12,0,0-.09-.05-.12-.12,0-.3.07l-.15,0-.21.08-.38.16a3.14,3.14,0,0,0-.39.24c-.29.18-.52.28-.81.46l-.78.51a1.87,1.87,0,0,1-.35.17c-.1,0-.07.08-.15,0s0-.15-.09-.14-.28.2-.38.24a.88.88,0,0,1-.33.08c-.08,0-.17-.1-.16-.17s.27-.19.38-.3,0-.16,0-.24,0,0,0-.12l.12-.12a3.71,3.71,0,0,1,.76-.55c.12-.08.29-.16.4-.25s0-.08.1-.13l.2-.12c.29-.18.57-.37.86-.54a1.65,1.65,0,0,1,.39-.24c.13,0,0,.16.22.12s.18,0,.29,0a2.34,2.34,0,0,0,.24.09c.09,0,.11.09.15.17s.06.23.13.23a2.42,2.42,0,0,0,.39-.24,3,3,0,0,0,.45-.28.29.29,0,0,1-.17-.19.92.92,0,0,1-.05-.28c0-.14-.07-.16-.28,0s-.3.15-.39.09-.1-.2-.14-.28-.09-.11-.06-.15.09,0,.15-.06a1.24,1.24,0,0,0,.28-.11,1.85,1.85,0,0,0,.43-.27c.09-.15-.33,0-.42,0a4.11,4.11,0,0,0-.46.15,2.62,2.62,0,0,1-.48.23c-.29.06-.22-.27-.36-.36-.09.07-.08.16-.15.23a2.23,2.23,0,0,1-.44.29,2.39,2.39,0,0,0-.21.13s0,.07-.1.12-.33.2-.47.29a1.37,1.37,0,0,1-.2.13.64.64,0,0,1-.16.06,7.8,7.8,0,0,0-.71.46,3.71,3.71,0,0,0-.52.36.79.79,0,0,1-.43.21,2.17,2.17,0,0,0-.67.38c-.1.07-.13.12-.2.17a2.44,2.44,0,0,1-.31.22.84.84,0,0,1-.29.16.62.62,0,0,0-.27.12,3.59,3.59,0,0,0-.59.4c-.17.17.22.2-.17.33a.49.49,0,0,0-.29.14c-.1.11,0,.11,0,.19s-.31.4-.52.51l-.08-.09a.58.58,0,0,1-.15.06,1.75,1.75,0,0,0-.25.16l-.25.17c-.11.09-.09.11-.18.19s-.38.18-.56.33-.11.19-.14.3c-.07.36-.63.63-1,.88l-.9.66a5.24,5.24,0,0,1-1.48.94c-.3.07-1,.69-1.13.45a2.92,2.92,0,0,1-.43.22.4.4,0,0,1-.19.07c-.06,0-.06-.05-.15,0a2.76,2.76,0,0,0-.5.38c-.14.11-.3.19-.45.29a.74.74,0,0,0-.22.13,2.14,2.14,0,0,1-.26.19,2.92,2.92,0,0,0-.48.29l-.31.24a140.53,140.53,0,0,0-18.09,21l.33-.37C187.56,339.07,188.18,338.4,188.79,337.73Z" transform="translate(-81.52 -211.11)"/><path class="cls-1" d="M318,291.66c0,.18,0,.35-.05.53s.19.44.28.67l1.53.62,1.35.2,1.37,0c.06-.38.11-.77.16-1.16l-2.15-.34Q319.27,291.91,318,291.66Z" transform="translate(-81.52 -211.11)"/><path class="cls-1" d="M320.13,304.43l-.54-.54c0-.2.05-.41.08-.61s-.17-.51-.25-.76l-1.5-.09c0,.19-.09.38-.13.57l-.94.45-1.18-.42c-.11-.23-.23-.45-.34-.67l-2,.08-.88.76c-.25.25-.49.51-.74.77l.8.93.57.28,1.86.22c0-.17,0-.33,0-.49.76.09,1.51.19,2.26.3l1.49.46.9.39,1.58.26L322,306c-.2-.32-.4-.64-.61-1Z" transform="translate(-81.52 -211.11)"/><path class="cls-1" d="M305.41,519.74s-.58,0-1.6-.18-2.48-.31-4.2-.62l-1.35-.26c-.46-.09-.94-.19-1.42-.31-1-.21-2-.47-3-.76l-1.57-.47-1.59-.54-1.56-.63c-.52-.22-1-.48-1.52-.71s-.95-.55-1.42-.82-.86-.63-1.29-.94a.85.85,0,0,1-.13-.1l-.16-.14-.31-.27-.56-.52c-.35-.35-.71-.71-1-1.07a24.35,24.35,0,0,1-3.16-4.32c-.4-.68-.74-1.33-1-1.91s-.53-1.1-.73-1.53l-.46-1-.17-.36h0a.12.12,0,0,0-.15-.06.09.09,0,0,0-.07.09v.39a10.42,10.42,0,0,0,.06,1.1,15.92,15.92,0,0,0,.25,1.7c.07.33.15.68.26,1s.21.75.36,1.14.32.8.49,1.23.41.84.67,1.27a13.84,13.84,0,0,0,1.87,2.55,15.64,15.64,0,0,0,1.25,1.18c.23.19.48.4.7.56l.34.24.18.12.2.14.79.47a7.75,7.75,0,0,0,.79.46c.55.26,1.08.56,1.64.79s1.12.47,1.68.68l1.7.56,1.69.47,1.67.37c1.1.22,2.16.41,3.18.55.5.08,1,.13,1.47.19s.94.11,1.38.14c.89.09,1.7.15,2.42.19s1.35.07,1.86.08c1,0,1.63,0,1.63,0a.1.1,0,1,0,0-.2Z" transform="translate(-81.52 -211.11)"/><path class="cls-1" d="M166.55,435c.46-.33.94-.63,1.47-1l1.53-1c.52-.33,1-.69,1.53-1s1-.74,1.48-1.13a22.55,22.55,0,0,0,2.79-2.57,20.13,20.13,0,0,0,2.26-3.06,41.84,41.84,0,0,0,3.15-6.72.09.09,0,0,0,0-.1.07.07,0,0,0-.1,0,55,55,0,0,1-3.65,6.33,20.81,20.81,0,0,1-5.09,5.12c-1.94,1.44-4,2.62-6.09,3.92a17.8,17.8,0,0,0-3.39,2.93c.07.65.17,1.3.26,1.94A17,17,0,0,1,166.55,435Z" transform="translate(-81.52 -211.11)"/><path class="cls-1" d="M331.47,486l.36,1a.47.47,0,0,1,0-.09V487c.13.62.28,1.25.42,1.88,0-.64-.05-1.27-.08-1.9C331.92,486.66,331.7,486.32,331.47,486Z" transform="translate(-81.52 -211.11)"/><path class="cls-1" d="M300.76,280.72a139.7,139.7,0,0,0-36.82,4.93c.66-.18,1.33-.35,2-.5,1.15-.26,2.3-.52,3.45-.75l2.25-.43,1.19-.22,1.67-.27c.24,0,.77-.18.85,0s0,.34.15.47.07.1.2.1l.21,0,.5-.08c.34-.05.7-.13,1-.2.65-.14,1.36-.21,2-.3.95-.13,1.9-.22,2.85-.33a3,3,0,0,1,.57-.06c.1,0,.09.3.09.38s-.06.14-.27.16-.65.11-1,.15a2.17,2.17,0,0,0-.51.08c-.16.05-.08.14-.07.24s0,.15-.2.17l-.44.06c-.26,0-.73,0-.85.16s0,.22,0,.27a2.68,2.68,0,0,1-.54.08c-.31,0-.65.07-1,.14-.13,0-.37.05-.41.13s0,.18,0,.25-.12.13-.29.15l-.41.06a3.91,3.91,0,0,0-.77.17c0,.08,0,.21.07.27s.1,0,.23,0l.26,0,.62-.07c.18,0,.27,0,.31.08l.06.34a.78.78,0,0,1,0,.22c0,.1-.08.08-.24.11a2.35,2.35,0,0,0-.37.05c-.17,0-.07.09,0,.18a3.12,3.12,0,0,1,.09.44c0,.16.05.33.07.5s.13.4,0,.49a2,2,0,0,1-.45.09c-.11,0-.12,0-.15.07s0,.09,0,.12.06.16-.08.22a2.16,2.16,0,0,1-.44.1l-.44.07c-.13,0-.32,0-.36.09s0,.18.06.24,0,.16,0,.24,0,.18.1.21.28,0,.39,0,.06,0,.11.05a.35.35,0,0,1,.05.13,1.85,1.85,0,0,0,0,.23.47.47,0,0,1,.05.26c0,.12-.2.15-.37.18l-.53.09c-.19,0-.32,0-.3.16s.07.2,0,.27a1.17,1.17,0,0,1-.4.1l-.83.14c-.13,0-.29.05-.41.09s-.13.13-.12.23,0,.12,0,.15a1.08,1.08,0,0,1-.19,0,2.62,2.62,0,0,1-.4.11.79.79,0,0,0-.3.08c-.12.06-.08.13-.08.2s.05.17,0,.2a2,2,0,0,1-.43.08c-1.13.22-2.26.45-3.38.69a4.61,4.61,0,0,0-.87.21.26.26,0,0,0-.11.29c0,.13,0,.13-.25.19s-.34.06-.35.19.1.2,0,.28-.27.06-.36.12.1.3-.18.42a2,2,0,0,1-.37.09l-.74.18-1.24.28c-.2.05-.69.08-.76.26s.15.27,0,.35a3.69,3.69,0,0,1-.39.1c-.2.05-.19.09-.17.21a1.55,1.55,0,0,1,0,.23c0,.09.1.2.08.3s0,0-.1.09l-.2.06-.21.06c-.1,0-.1,0-.12.08s0,.17.06.24,0,.1,0,.14-.54,0-.62.2.05.27.07.36a2.89,2.89,0,0,1,.16.72c-.24.07-.62.1-.59.3s.08.15.07.22-.16.1-.29.13l-1,.29-.51.15c-.18.05-.19,0-.23-.09s-.05-.14-.25-.08l-.4.12c-.28.08-.55.11-.83.19-.13,0-.27.1-.36.05s-.09-.14-.13-.22-.24,0-.37.05-.23-.11-.28-.21,0-.13-.15-.11a1.13,1.13,0,0,0-.32.13c-.15.06-.17,0-.2-.05s0-.32-.28-.25a1.39,1.39,0,0,1-.33.1c-.1,0-.09-.09-.11-.14a.35.35,0,0,0,0-.11c0-.07,0-.07-.12,0a2.82,2.82,0,0,1-.43.12c-.09,0-.14-.14-.17-.19s-.07-.13-.29-.08a1.65,1.65,0,0,1-.39.09c-.08,0-.08-.16-.09-.22s0-.3-.14-.38-.4.13-.6.1,0-.26-.17-.31a1,1,0,0,0-.39.07c-.17.06-.25.09-.31,0s-.07-.33-.15-.48,0-.17.19-.24a2.24,2.24,0,0,0,.39-.14c.23-.12,0-.28.07-.41s.33-.14.46-.19l.68-.23.42-.14a1.7,1.7,0,0,0,.4-.13c.05-.05-.09-.18-.1-.22s-.05-.18-.08-.27,0-.2-.12-.2a3.66,3.66,0,0,0-.44.13,4.5,4.5,0,0,0-.63.17c-.31.13,0,.27-.07.44s-.16.1-.28.14l-.33.11L252,297a3.59,3.59,0,0,0-.35.12,2,2,0,0,1-.39.14,2.65,2.65,0,0,1-.24-.8c0-.07,0-.25-.11-.27s-.35.13-.49.13-.14-.24-.16-.3,0-.27-.11-.34-.32.05-.47.07-.28-.25-.32-.38a.48.48,0,0,0-.1-.23c-.09-.07-.2,0-.36.05s-.24.09-.3,0,0-.17-.08-.22-.24,0-.36,0-.29.13-.3,0,0-.25-.19-.23a4.18,4.18,0,0,0-.61.23l-1.24.47c-.31.12-.61.23-.92.32a2,2,0,0,0-.8.3c-.09.1,0,.08-.18.15l-.23.09-.43.17-.91.38c-.57.23-1.16.5-1.72.69-.28.1-.57.25-.84.36s-.28-.13-.43-.23l-1.19.5s-.06-.37-.21-.35-.51.46-.62.27-.06-.18-.13-.25-.31-.37-.06-.51.6-.28.89-.43.51-.29.79-.41c.56-.25,1.12-.48,1.68-.7l.77-.34c.19-.1.69-.26.78-.42s0-.17,0-.25a1.94,1.94,0,0,1,0-.24c0-.12,0-.15.18-.23l.41-.17c0-.11-.18-.23-.11-.37s.39-.21.56-.28.41-.17.62-.24a9.88,9.88,0,0,0,1-.39c.17-.09.17-.14.13-.24a.26.26,0,0,1,.07-.26q-1.38.6-2.73,1.23c.05.09,0,.2-.21.33s-.59.24-.86.35l-.86.36a3,3,0,0,0-.41.19.88.88,0,0,0-.24.19c.14,0,.11.25,0,.33a3,3,0,0,1-.36.16l-.35.15a3.92,3.92,0,0,0-.36.16c-.16.08-.14.08-.1.18s0,.11,0,.21-.11.12-.3.23-.2.13-.34.2l-.35.16-.78.35-1.45.68c.17-.12.17.09.19.15s.12.18.12.28a1,1,0,0,1-.09.27,2.72,2.72,0,0,1-.54.27l-1,.47a7.05,7.05,0,0,0-1,.51c.15.08.18.26.24.41a2.44,2.44,0,0,1,.1.24c0,.09-.08.18-.06.28s0,.07,0,.12,0,.07,0,.11.08.08,0,.12-.1,0-.16.05a4.18,4.18,0,0,0-.87.44s.11,0,.18,0,.05.08.05.14c0,.25.25-.09.4,0s0,.12,0,.16a.1.1,0,0,0,0,.08c0,.13.11.13-.13.27a2,2,0,0,1-.43.23c-.33.06-.08-.44-.43-.29-.1,0-.15.11-.22.07s-.1-.25-.13-.33-.06-.31-.3-.27a3.36,3.36,0,0,0-.71.3l-.28.09c-.14.06-.28.15-.41.22l-1.43.76c.1,0,.11.1.14.16s.11.15-.13.28l-.48.26a3.69,3.69,0,0,1-.42.17c-.05,0,0-.16-.09-.19s-.24.1-.36.16-.18,0-.29.1-.23.15-.31.08-.1-.16-.08-.2a1.91,1.91,0,0,1,.4-.23l.75-.41.34-.19c.18-.09.26-.11.24-.23s0-.18-.1-.18-.14.07-.19.1-.14,0-.22.08a3.29,3.29,0,0,0-.42.21,1.77,1.77,0,0,1-.38.15,4.21,4.21,0,0,0-.71.41l-.63.4-.44.26a3.31,3.31,0,0,1-.41.14,5.66,5.66,0,0,0-.92.52,1.78,1.78,0,0,1-.3.17c-.06,0-.08,0-.14,0a2.5,2.5,0,0,0-.41.25,2.75,2.75,0,0,0-.41.24c-.1.09,0,.17,0,.23s.07.08.06.12-.07.08-.09.15.1.16.16.21.06.12.27,0a.79.79,0,0,1,.34-.14,3.31,3.31,0,0,0,.78-.42l.2-.12c.07,0,.08,0,.15,0a2.25,2.25,0,0,1,.21-.12c.06,0,.08,0,.15,0,.25-.11.56-.33.81-.47a1.78,1.78,0,0,1,.4-.22c.12,0,0,.17,0,.22s.08.17.11.24,0,.17.21.08.55-.31.81-.45l.88-.49a7.64,7.64,0,0,1,.89-.47c.12,0,.32-.07.34-.19s0-.09,0-.12a.81.81,0,0,0,0-.16l.26-.15c.1,0,.13,0,.22-.06a6.21,6.21,0,0,0,.62-.33l.62-.32c.1-.05.16-.11.22-.07s0,.16.14.16.21-.07.29-.07a1,1,0,0,1,.17,0c.06,0,.16-.06.19,0s-.11.15-.17.19c-.35.21-.71.36-1.07.55a3.62,3.62,0,0,0-.32.22c-.17.11-.2.06-.35.09a.77.77,0,0,0-.24.12l-.85.45-1.29.71c-.52.28-1,.57-1.54.86l-.93.53a1.62,1.62,0,0,1-.63.29c-.2,0-.21-.15-.31-.23s-.26,0-.47,0c0,0,0,0-.09,0l-.14.09a1.53,1.53,0,0,0-.29.11c-.29.18-.66.36-.93.57a2.4,2.4,0,0,0,.11.23c.05.11.06.11.26,0s.29-.18.37-.12,0,.09.06.12.1,0,.13.06.18-.06.28-.1.22-.16.33-.21L224,307l.32-.12a2.29,2.29,0,0,0,.28-.09c.15-.07.19-.13.29-.06a2.28,2.28,0,0,1,.33.29c-.16.13-.38.19-.53.32s-.09.09-.18.15a2.4,2.4,0,0,1-.27.16l-.53.31a2.4,2.4,0,0,0-.27.16c-.07.05-.06.11-.15.14.22-.09.2.23.21.31s.17.15.36.06a1.51,1.51,0,0,1,.2-.12c.29-.09,0,.46.5.16.11-.07.28-.2.35-.16s.08.18.11.24,0,.2.16.16.27-.17.39-.22c.33-.13.13.3.37.23a2.82,2.82,0,0,0,.4-.24l.4-.22a3,3,0,0,1,.81-.43c.14,0,.09.11.17.16s.21,0,.37,0c.09.13.24.1.4.17s.13.17.23.18a1.47,1.47,0,0,0,.44-.21c.08,0,.35-.15.38-.22s-.07-.19-.09-.23-.1-.15.13-.27l.4-.22a3,3,0,0,0,.47-.25c.1-.09,0-.17,0-.22s-.06,0-.09-.06,0-.11-.07-.16-.06-.4-.32-.31a3.09,3.09,0,0,0-.44.23,4.59,4.59,0,0,1-.45.14l-.39.21c-.05,0-.1,0-.16.05s-.18.1-.27.14a6.2,6.2,0,0,1-.75.42c-.39.16-.25-.19-.55-.12-.15,0-.3.14-.45.18s-.15-.05-.26-.08-.24.11-.38.16-.14,0-.17-.1,0-.18,0-.28a5.3,5.3,0,0,1,.57-.33h-.11l.16-.08c-.09,0-.16,0-.17-.06s0-.07,0-.12-.11-.1.11-.24.33-.13.48-.21.09-.14.09-.24a.9.9,0,0,0,0-.16c0-.05-.07,0,0-.11a2.4,2.4,0,0,1,.47-.27c.16-.07.26-.09.43-.18l.4-.23c.21-.11.27-.17.32,0s.11.08.33,0l.47-.26.47-.25c.22-.12.29-.13.22-.27a.73.73,0,0,1,0-.12c0-.09,0-.06.1-.15s.33-.17.48-.25l1-.5c.26-.13.19-.05.27.06s0,.06.1.05.27-.17.4-.15c-.1.09-.08.31,0,.32a2,2,0,0,0,.46-.24,1.48,1.48,0,0,1-.21,0c-.08,0,0-.08-.08-.12s0-.08-.1,0-.14.1-.2.09,0-.15.13-.19l.29-.11c.1,0,.11,0,.19,0a.66.66,0,0,0,.36-.23,1.86,1.86,0,0,1,.27-.22,2.78,2.78,0,0,1,.81-.4,2.13,2.13,0,0,1,.43-.21c.08,0,.08.05.11.09s.13,0,.31-.05l.41-.2a1.6,1.6,0,0,1,.4-.19c.08,0,.07.18.12.22s.16,0,.23.05,0,.1.06.1.18-.12.25-.16a2.27,2.27,0,0,1,.8-.32c.1,0,.14.14.21.19s0,.08.09.05a1.75,1.75,0,0,0,.28-.13l1.28-.6a.57.57,0,0,1,.59,0,.5.5,0,0,0,.55,0c.36-.15.71-.33,1.06-.48s.57-.25.53,0c0,.09-.16.27,0,.29s.49-.27.61-.19.06.22.11.28a.66.66,0,0,0,.21.15c.12.07.17,0,.36,0s.22-.06.26.08,0,.09.05.12,0,.08.16,0,.38-.16.55-.23l1-.39.2-.09c.16-.05.11,0,.17,0l.09.1c.06.07,0,.09.13.1a3,3,0,0,0,.91-.32,2.07,2.07,0,0,1,.47-.17c.18,0,0,.24-.09.33s-.18.1-.18.17.13.12.12.21,0,0,0,.11a2.15,2.15,0,0,1-.27.1c-.15.06-.21.12-.34.18a3.66,3.66,0,0,1-.46.18c.16-.09.15.06.15.12s0,.06,0,.12.06.06.11.09c-.23.14-.55.21-.8.33a.75.75,0,0,1-.26.6s0,0,0,0l-.18.08c-.14,0-.12,0-.16,0s-.05-.18-.14-.24-.09,0-.1-.06,0-.09-.08-.13-.12-.05-.17-.08-.05-.07-.09-.09.06-.1,0-.13-.07,0-.16,0l-.41.17c-.2.09-.2.1-.16.22a.56.56,0,0,1,0,.12c0,.06.07.07.1.11s0,.18.21.1.19-.16.38-.2c.36-.09.09.31.33.33-.05,0,0,.06,0,.09l.14,0a.08.08,0,0,1,0,.08c.11.06.17-.09.28-.16a3.57,3.57,0,0,1,.45-.19c.2-.09.26-.08.25.08-.28.1,0,.12.07.16s.18.41-.16.59a6.78,6.78,0,0,1-.84.35c-.12.05-.15,0-.19.12s0,.15-.09.22a2.85,2.85,0,0,1-.59.26c-.4.17-.81.38-1.21.52-.24.08-.27,0-.27-.16s0-.08-.05-.09a.65.65,0,0,0-.28.13,8.48,8.48,0,0,1-.93.41c-.14,0-.23,0-.3,0a.26.26,0,0,1-.07-.15c0-.08,0-.08-.12-.09a1.51,1.51,0,0,0-.45.06l-.13.07a.14.14,0,0,1-.09,0,1.52,1.52,0,0,1-.25.09l-.14-.06c-.23-.05-.38,0-.63.18s-.71.34-1.06.5l-.27.13a1.56,1.56,0,0,0-.25.17,1,1,0,0,1-.28.09,4,4,0,0,0-.47.22l-.27.13-.13.07-.16,0a1.47,1.47,0,0,1-.54.15.43.43,0,0,1-.18-.05c-.1-.06,0-.09.05-.18a.51.51,0,0,1,.2-.14,1.21,1.21,0,0,0,.25-.17l.21-.14c.09-.08.11-.09.14-.18s0-.1,0-.15-.08-.09.09-.19c.37-.22.82-.4,1.21-.58l.27-.13c.17-.1.1-.08.08-.19a.17.17,0,0,1,0-.15c.06-.09.12-.11.26-.17l.61-.28a1.8,1.8,0,0,1,.55-.23,1.57,1.57,0,0,1-.09-.23c0-.09,0-.17,0-.27s.23-.11.22-.19l-.17,0c-.07,0-.07-.06-.15,0a3.73,3.73,0,0,0-.62.28l-.61.29c-.13.06-.13.05-.19.13s0,.15-.1.2a3.22,3.22,0,0,1-.46.21c-.18.09-.27.18-.45.27s-.94.53-1.05.41,0-.18.07-.27a1.58,1.58,0,0,1,.26-.13l.16-.14c.05-.05.12-.1.13-.15s-.07-.07,0-.18.26-.21.33-.32c-.09,0-.05-.08-.14-.09a.61.61,0,0,0-.3.11l-.34.17a3.86,3.86,0,0,1-.41.2c-.22,0-.06-.36-.28-.31a1.83,1.83,0,0,0-.65.38c-.08.17.21.29.17.44s-.15.13-.25.18-.27.17-.29.05,0-.17,0-.24-.22,0-.37.1l-.81.41a1.27,1.27,0,0,0-.21.14c-.13.09-.31.15-.44.25.22.11.26.43.35.64l.15.37c0,.05.05.1.07.16l0,.08s.11,0,.11,0-1,.5-1.13.63.05.29.08.37,0,.17.12.22.2,0,.35-.09a1.8,1.8,0,0,1,.56-.2h.1l.12-.06c.08,0,.19-.05.23,0s0,.14.07.17.18-.05.28-.1a1.45,1.45,0,0,1,.58-.14s.07.11.07.15,0,.1-.17.18a7.51,7.51,0,0,0-1,.56,4.81,4.81,0,0,1-.62.47c-.28.16-.57.3-.86.45s-.72.42-1.1.59c-.14.06-.11.07-.17,0s0-.11-.07-.16l-.14-.32c0-.1-.09-.21-.14-.31s-.08-.08,0-.16a2.57,2.57,0,0,1,.33-.18c.13-.07.4-.26.48-.21s0,.31.2.28a2.53,2.53,0,0,0,.54-.28c.14-.12-.07-.18-.11-.24a1.15,1.15,0,0,1-.14-.32s0-.14-.08-.15-.21.11-.28.15-.34.18-.51.27a2.8,2.8,0,0,0-.54.4,4.14,4.14,0,0,1-.67.41c-.29.17-.06.28,0,.42s-.05.13-.22.23-.28.11-.23.22.14.06.16.16,0,.16,0,.24a1.93,1.93,0,0,1-.44.2l-.09.06c-.06.05,0,.05,0,.09a.41.41,0,0,1-.23.14c-.24.1-.45.19-.5.4a1.14,1.14,0,0,0,.08.53c0,.19-.28.29-.5.38s-.47.27-.7.4-.18.09-.16.19.15.16.1.24a1.72,1.72,0,0,1-.3.19,2,2,0,0,0-.4.23c-.16.16.22.26.06.43a2.59,2.59,0,0,1-.33.19c-.12.07-.27.15-.38.23s-.12.1-.07.2l.12.23a1.41,1.41,0,0,0,.19.39.13.13,0,0,0,.09.05c0,.05,0,.05,0,.11s0,.21.1.23.1,0,.19-.12.27-.16.38-.23l.32-.19c.16-.1.22-.16.29-.07a.69.69,0,0,1,.1.19c.05.1,0,.17.2.08a2.69,2.69,0,0,0,.32-.19c.18-.11.19-.11.24,0s.3.58.69.48c.21-.05.23-.21.37-.33s.24-.14.35-.22.2-.16.32-.23l.38-.22a3.07,3.07,0,0,1,.38-.22c.24-.07.06.41.37.3s.48-.33.73-.38c.07,0,.17,0,.21,0s0,.1.07.1a1.68,1.68,0,0,0,.37-.2l.77-.42c.44-.24.9-.51,1.35-.71l.5-.23c.16-.07.15,0,.15.07a1.85,1.85,0,0,0,0,.24,1.15,1.15,0,0,0,.14.32l.1.24s.06.27.13.27.3-.15.37-.19a3.41,3.41,0,0,1,.51-.25c.06,0,0,.06,0,.1s0,.07.1.1.14.13.18.24,0,.09,0,.12,0,.07.16,0l.26-.14c.13-.05.11-.05.16,0s0,.24.11.29.35-.13.47-.19l.44-.23.25-.11c.06,0,.11,0,.19,0-.1,0-.11-.17-.14-.23s0-.14.19-.23c-.14,0-.18-.06-.17-.15a.67.67,0,0,1,.06-.15.38.38,0,0,0-.05-.16c-.05-.11-.09-.22-.13-.33a.77.77,0,0,1-.07-.16c0-.06,0-.11,0-.16s-.61.3-.78.2a.63.63,0,0,1-.12-.33c.06-.09.39-.18.47-.2s.3,0,.32-.14-.07-.11-.07-.16,0-.1,0-.16-.09-.07,0-.15A2.24,2.24,0,0,1,238,311c.12-.07.1,0,.15-.15s.05-.07.19-.16.16-.19.11-.3,0-.53-.11-.77a.21.21,0,0,0-.22-.15c-.21,0-.41.21-.62.26a.36.36,0,0,0,0-.18c0-.1,0-.12-.18-.06s-.47.28-.58.14a1.31,1.31,0,0,1-.08-.21c0-.05-.1-.14-.09-.2s.54-.21.57-.37-.11-.33-.22-.32-.2.12-.31.15-.12-.05-.14-.12a1.12,1.12,0,0,1,0-.45.81.81,0,0,0-.09-.47c0-.09-.16-.23,0-.36s.3-.13.41-.19l.73-.35a5.13,5.13,0,0,1,.79-.37c0,.08.11.12.17.2s0,.08.09.06a1.66,1.66,0,0,0,.27-.13l1-.47.94-.42c.25-.12.22,0,.33.13s.09.12.18.12a2.3,2.3,0,0,0,.51-.23c.18-.08.29-.13.38,0s.07.2.17.27.14.12.23.17l.14.06c.1.05,0,0,.18,0s.1-.07.16,0,0,.12.07.15.32-.15.42-.08,0,.13.05.17l.13.14c.06.07,0,.07.16,0l.27-.11.53-.23a1,1,0,0,0,.25-.11c0-.05,0-.13,0-.17s.08-.14.29-.27a.38.38,0,0,1,.12-.09l.14-.05c.09-.07,0-.1,0-.16a.52.52,0,0,1-.06-.16c0-.1,0-.07.11-.14a4.93,4.93,0,0,1,.53-.22,4.32,4.32,0,0,1,.45-.19c.14,0,.14.09.22.14s.41,0,.62-.13a1.79,1.79,0,0,0,.14.13s0,0,.07,0,0,.05,0,.09,0,.12.08.1a1.58,1.58,0,0,0,.34-.13l.27-.11c.19-.06.11,0,.11.06s0,.19.06.2a1.21,1.21,0,0,0,.33-.12c.24-.1.37,0,.41.12l.12.38a.16.16,0,0,0,.09.12c.12.07.19-.05.34,0s.11.2.17.26.67-.19.77,0,0,.23.19.17.36-.14.54-.2.34-.17.41-.11,0,.25.14.24l.2-.08a1.31,1.31,0,0,1,.22-.05c.14,0,.4-.17.47-.11s0,.25.14.24.28-.19.36,0a3.36,3.36,0,0,1,.18.64l.09.29a1.21,1.21,0,0,0,.09.34s.07,0,.1.06a.47.47,0,0,1,0,.17c0,.08,0,.3.16.31a3.27,3.27,0,0,0,.67-.22l.26-.1a1.47,1.47,0,0,1,.27,0c.24,0,.38-.22.44,0s.07.25.1.38.07.26.11.38,0,.12,0,.17.06.11-.09.18-.55.17-.8.29a4.34,4.34,0,0,1-.53.26l-1.71.61-.45.17a2.22,2.22,0,0,1-.45.16c-.2,0-.21-.43-.26-.55s0-.12.21-.23a1.4,1.4,0,0,0,.25-.22c0-.11-.1-.17,0-.28s.23-.14.14-.27-.1,0-.09-.07.11-.06.2-.12a.22.22,0,0,0,.07-.33c-.06-.11-.1-.28-.33-.18a2.13,2.13,0,0,0-.25.16c-.11.06-.22.09-.34.15s-.09.15-.08.27,0,.07-.11.13l-.26.1-.53.2-.52.2a2.15,2.15,0,0,0-.27.1c-.08.06,0,.09,0,.15s.38.45.2.59-.34.11-.46.18-.33.31-.45.23,0-.27-.27-.18a1,1,0,0,1-.47.09c-.17,0-.07-.19-.19-.24s-.32.07-.45.13l-.53.21-.66.28c-.25.1-.93.31-.9.57,0,.06.15.21.09.29a2.14,2.14,0,0,1-.37.17l-.77.33c-.17.08-.25.08-.23.2a1,1,0,0,0,.09.24c0,.1.08.45.22.44s.27-.13.31-.14a3.31,3.31,0,0,1,.33-.15c.11,0,.23,0,.36-.05a3.13,3.13,0,0,1,.32-.15h.14l.19-.09c.56-.24-.39-.43-.2-.58a2.37,2.37,0,0,1,.32-.14l.32-.13c.21-.09.45-.17.65-.27s.14-.1.24-.15l.14-.05s0-.07.1-.1.19-.07.23,0l0,.09s.08,0,.09,0,0,.12-.17.17-.17.06-.16.16a1.73,1.73,0,0,0,.14.42s0,.18.08.19.25-.09.31-.12l.64-.26.33-.13c.15-.06.16-.08.22,0s0,.3.28.22.44-.18.65-.26a1.52,1.52,0,0,0,.32-.12c.1-.07,0-.13,0-.2s-.08-.12,0-.19a1.61,1.61,0,0,1,.33-.12c.15-.05.13,0,.16.07a.71.71,0,0,0,.07.22s0,0,.07,0,0,.08,0,.11.14,0,.17.07a5.12,5.12,0,0,1-.77.3l-.77.3-.77.31c-.21.08-.54.15-.48.33s.14.39.2.58.09.16-.13.25l-.33.13a1.72,1.72,0,0,1-.38.16c-.11,0-.14-.12,0-.21s.34-.05.26-.26a.36.36,0,0,0-.16-.21s-.08-.1-.1-.1-.13.08-.18.11c-.31.18-.74.31-1.07.46-.12.05-.32.1-.39.2s.14.16-.09.29-.65.28-1,.41c-.11,0-.32.11-.38.21s.05.21.05.31l-.17.09c0,.19.17.33.13.53a.33.33,0,0,0,.12.4c.12.1.24.22,0,.39a3.05,3.05,0,0,1-.48.23,1,1,0,0,0-.25.11c-.09.07,0,.08,0,.15s0,.07-.1.14l-.25.11c-.08,0-.17.07-.25.12s-.1,0-.09.14.07.15.09.24,0,.07-.09.14a3.23,3.23,0,0,1-.42.2s0,0,.08.06a1.12,1.12,0,0,1,.12.32c0,.1.07.1-.07.18s-.32.12-.36.18.05.17.07.21.16.24.11.32a1.4,1.4,0,0,1-.3.15.51.51,0,0,0-.16.09c-.07.05,0,.08-.07.11a.7.7,0,0,1-.17.09c-.15.07-.33.18-.3.3a1.67,1.67,0,0,1,.08.2c.06.13.1.27.16.4.13,0,.27-.15.4-.19s.12,0,.16.11a4.19,4.19,0,0,1,.22.59l-.34.16a1.61,1.61,0,0,0-.33.23c-.06.08,0,.15,0,.23s-.05.15-.2.22l-.35.18c-.13.06-.25.09-.23.21s.14.19,0,.3a1.64,1.64,0,0,1-.35.18s-.16.09-.17.12.07.14.08.17,0,.2-.21.3a1.51,1.51,0,0,0-.18.09c-.1.07-.06.07,0,.15a.44.44,0,0,1-.05.41c-.1.11-.28.12-.4.2.11.32.3.61.43.93,0,.07.13.39.25.37a2.08,2.08,0,0,0,.33-.17c.15-.06.18,0,.23.08a8.58,8.58,0,0,1,.35.83c.12.28.25.57.35.87l-.74.4c-.21.11-.36.23-.43.05a.61.61,0,0,1-.05-.12s0-.11,0-.15-.23,0-.33,0-.19.08-.26,0a2,2,0,0,1-.21-.44c0-.09-.08-.17-.11-.26s0-.2-.05-.3-.06-.27-.19-.24a1.28,1.28,0,0,0-.29.14,2.64,2.64,0,0,1-.29.15c-.14-.07-.08-.43-.24-.41a.92.92,0,0,0-.31.16c-.16.12-.06.18-.05.28s-.1.15-.22.2-.23.12-.35.18-.49.33-.55.11,0-.21-.08-.25-.28,0-.4.1l-.34.18c-.2.11-.41.16-.35.33s.13.16,0,.27-.25.11-.32.19.23.31-.05.55a4.45,4.45,0,0,1-.64.37l-.41.24a2.56,2.56,0,0,1-.35.22c-.08,0-.07,0-.1-.07a.84.84,0,0,0-.12-.23c-.07-.07-.15,0-.29.07l-.33.19-1,.54c-.1.06-.27.15-.29.25s.09.16.09.24-.27.29-.42.43-.06.08-.05.18a.78.78,0,0,1,0,.22c0,.06-.13.13-.2.18a1.1,1.1,0,0,0-.25.17c-.06.09,0,.17.05.22s0,.18.06.25a1.86,1.86,0,0,0-.32.23c-.07.11,0,.19.05.26a5,5,0,0,1,.25.46c.08.17.19.32.28.48s.26.38.19.47-.25.16-.36.24-.09.11-.06.19a1.38,1.38,0,0,0,.23.36s.1.21.15.21.28-.2.37-.24.14.09.18.16.09.06.25,0l.18-.08c.07,0,.07,0,.11,0l.11.22a4.78,4.78,0,0,0,.41.59s0,.11.07.11.24-.14.29-.17a.72.72,0,0,1,.19-.11c.07,0,.06,0,.09.07l.11.22c.1-.06.42-.3.49-.28s.06.13.08.17.08.05.2,0c.4-.25.82-.47,1.22-.72a2.3,2.3,0,0,0-.06-.28c-.05-.1-.07-.13.08-.23s.23-.09.34-.17.06-.15,0-.22-.06,0-.08-.07,0-.06.07-.12.22-.11.32-.18,0-.15,0-.23a2,2,0,0,0-.1-.21c-.05-.12-.11-.24-.16-.35s-.12-.19,0-.33a.74.74,0,0,1,.21-.13l.41-.25.78-.44.32-.18c.17-.09.16,0,.22.07s.15.31.22.47a5,5,0,0,1,.22.47c-.17.1-.37.19-.53.3.11.3.26.58.39.87s.13.31.21.46.12,0,.23,0,.22-.16.3-.12,0,.18.15.21a.47.47,0,0,0,.27-.05c-.08-.21-.18-.41-.25-.63.17-.09.35-.16.51-.25,0-.13-.12-.22-.15-.35.24-.09.47-.27.7-.38a1.18,1.18,0,0,0,.28-.12c.07-.07,0-.17,0-.24s-.1-.14,0-.22.22-.07.32-.12.06-.11,0-.19-.07-.16,0-.24a.68.68,0,0,1,.27-.13c.11,0,.13,0,.16.07l.09.24a2,2,0,0,0,.1.26s0,.1.06.11A1.19,1.19,0,0,0,243,331c.1-.06.26-.11.27-.2s-.08-.16-.09-.25,0,0,.05-.08a1.73,1.73,0,0,1,.31-.14l.45-.2.1,0c.09.21.13.44.22.64s0,.09.09.09.17-.08.23-.1c.28-.12.56-.26.84-.36a1.57,1.57,0,0,1,.09.23.61.61,0,0,0,0,.11c0,.06,0,0,.12,0,.29-.1.58-.25.87-.37l.52-.22a1.68,1.68,0,0,0,.43-.17s0-.22,0-.26-.09-.16.08-.23.44-.18.67-.27c.06,0,.24-.12.29-.1s0,.15,0,.19a1.66,1.66,0,0,0,.06.21l.28-.11c.13-.05.14-.05.18,0a1.18,1.18,0,0,0,.07.2c.05.09.07.07.2,0a1.24,1.24,0,0,1,.32-.12c.06,0,.07.15.1.2s.07.13.2.08l.32-.12c0,.07,0,.15.08.23s0,.16.18.12.22-.1.33-.12.06,0,.09.05,0,.09.05.13.06.12.17.11.28-.12.37-.12.1.28.15.36.32-.21.46-.13.07.26.09.33c.26-.08.52-.18.78-.24a8.39,8.39,0,0,0,.85-.27l1-.36c.08,0,.3-.12.36-.09s.05.16.09.23.06.09.08.14,0,.26.07.39,0,.16.07.24.12.07.26,0,.21-.1.27,0a.94.94,0,0,1,.06.24,1.09,1.09,0,0,0,.1.25.24.24,0,0,0,.06.11.33.33,0,0,0,.19,0c.08,0,.19-.07.25,0s.06.18.08.23,0,.5.27.47a2.38,2.38,0,0,0,.49-.17.86.86,0,0,1,.3-.09c.11,0,.1.13.12.21s0,.14.14.13.2-.07.29-.09.15,0,.18.11,0,.2.06.22a.61.61,0,0,0,.23,0l.49-.15a1.36,1.36,0,0,1,.25-.07s0,.17.05.21,0,.14.11.13a2.41,2.41,0,0,0,.25-.08c.21,0,.19,0,.22.12a1.55,1.55,0,0,0,.06.23s2.72-.79,3-.83c0,.06,0,.15,0,.22s0,.21.09.21.25-.09.37-.1.09,0,.12.06l0,.14c0,.1,0,.21.16.18s.31-.09.47-.12a.46.46,0,0,0,0,.2c0,.08.09.07.2.06l.59-.11c.1,0,.11,0,.13.07s.06.19.2.22.24,0,.29,0,.05.17.06.23,0,.11.11.1.33-.09.49-.12a11,11,0,0,1,.23,1.14,2.51,2.51,0,0,0-.49.12c-.14.07.05.31.05.42l-.34.06a.85.85,0,0,0-.17.06s0,.12,0,.15c0,.2.09.4.12.61a1.94,1.94,0,0,0-.5.15.57.57,0,0,1,.07.31c0,.09,0,.08-.09.11l-.22.1c-.06,0-.1,0-.12.09s0,.1,0,.13,0,.11,0,.13-.08,0-.14.06-.25.06-.3.13.07.41.09.52.07.16,0,.21-.42,0-.4.28a4.19,4.19,0,0,0,.14.47c0,.14.06.29.1.43a1.28,1.28,0,0,1,.11.27c.1.43.2.86.29,1.28,0,.18.08.35.1.52,0,0-.52.12-.57.15.06.37.22.69.28,1.07a1.44,1.44,0,0,0-.24.09c-.08,0-.2,0-.21.11s.12.28.06.36-.38,0-.44.13,0,.15,0,.18.09.3-.13.41a4.19,4.19,0,0,1-.47.14c-.23.07-.44.17-.67.24a1.36,1.36,0,0,0-.28.11c-.11.05-.17.06-.15.17s0,.1-.13.14l-.34.11a1.32,1.32,0,0,0-.3.1c-.09.06,0,.16,0,.25s.05.15-.05.22-.2.08-.29.14,0,.14,0,.23a2.77,2.77,0,0,1,.1.26c0,.18.09.36.14.54s.07.3.11.44.11.23.07.29a.94.94,0,0,1-.23.1,2,2,0,0,0-.21.1c-.06.05,0,.15,0,.22s.08.27.11.41,0,.11-.15.16-.22,0-.21.18.07.16.08.25-.16.19-.29.27,0,.46,0,.68a1.15,1.15,0,0,0-.25.12c-.11.06-.15.11-.13.22s.07.16,0,.24-.2.09-.29.15,0,.33,0,.44a1,1,0,0,1,0,.29c0,.09-.31.17-.4.22s0,.14.06.22,0,.12-.14.16-.36.14-.54.21l-.66.23c-.06,0-.22.11-.28.1s-.05-.07-.07-.1-.05-.16-.1-.21-.13,0-.22,0,0,.17.07.26a.76.76,0,0,0,.06.26c.09.12.37-.17.45,0s.1.38.18.54a2.55,2.55,0,0,1,.22.54c.05.23-.26.23-.41.32s0,.15,0,.24-.46.33-.64.39l-.26.1a1.25,1.25,0,0,0-.29.11c-.06.06,0,.18,0,.25s0,.15-.12.21-.53.06-.56.27.1.36.12.52,0,.19-.09.26a5.93,5.93,0,0,1-1,.38l-.41.17c-.09,0-.11,0-.09.12a1.27,1.27,0,0,0,.06.18c.14,0,.37-.17.49-.11s.09.12.12.18.11.08.22.05.16-.06.22.05a1.22,1.22,0,0,1,.1.23c0,.1.06.14-.06.19a2.5,2.5,0,0,0-.25.09s-.05.09-.05.14,0,.08,0,.12a.48.48,0,0,1,.05.23.72.72,0,0,1-.06.29c-.06.12-.24.11-.24.26s.09.2.11.3-.27.1-.39.17a1,1,0,0,0-.17.1c-.07.06-.06.08,0,.16s.13.46.22.68c.13-.06.28-.08.42-.14a.58.58,0,0,1,.21-.07c.09,0,.1.08.13.16s.08.26.13.38a1.42,1.42,0,0,0,.07.22,1.42,1.42,0,0,1,.08.18c-.25.12-.48.27-.73.39a1.18,1.18,0,0,1,.09.37c-.13.07-.3.09-.44.16a2.26,2.26,0,0,0,.13.33c0,.11,0,.23.06.34s-.25.07-.3.15.06.21.08.28a2.52,2.52,0,0,0,.12.29c0,.09,0,.21.14.18s.21-.17.3-.12.08.19.11.25.17,0,.29,0,.13,0,.17.1,0,.19.14.14.26-.14.34-.11.08.17.1.23.09.14,0,.2-.4.11-.5.27,0,.07-.05.15,0,.09,0,.12,0,.12-.07.22a1.4,1.4,0,0,1-.5.26,2.71,2.71,0,0,0-.49.22l-.08.08-.13.05c-.1,0-.16,0-.21-.05s0-.2-.09-.25-.15,0-.23.06-.18.11-.24.1-.09-.13-.15-.2-.15,0-.24,0-.19.09-.29.12a.29.29,0,0,1-.22,0c-.09-.06-.08-.19-.15-.27h-.07l0-.06c-.13,0-.13.08-.23,0a1,1,0,0,1-.23-.28.4.4,0,0,0-.15-.19c-.08,0-.16,0-.25,0s-.18-.16-.22-.28l-.15-.37c-.09-.24-.19-.48-.28-.73a2.39,2.39,0,0,1-.15-.37c0-.09,0-.07.06-.12a2,2,0,0,1,.21-.1.75.75,0,0,0,.18-.08c.06-.06,0-.12,0-.19a2.28,2.28,0,0,0-.15-.36c-.11,0-.18,0-.28,0s-.12.09-.17.08-.09-.08-.1-.09-.17-.17-.1-.25.27-.07.34-.17,0-.17-.08-.24a.74.74,0,0,1-.13-.33c0-.08.07-.17.06-.26s-.16-.25-.12-.33.13-.05.17-.08a1.09,1.09,0,0,0,.1-.11,2,2,0,0,0,.19-.22c.05-.07.08-.28,0-.27s-.21.17-.32.1-.07-.24-.13-.32-.06-.05-.09-.1a.87.87,0,0,1-.07-.17l-.12-.32c-.05-.14,0-.17.11-.26,0,0-.06,0-.09,0s0-.11-.07-.15-.09-.19.05-.27.26-.08.33-.15,0-.23-.08-.29l-.12,0c-.07-.09-.07-.22-.14-.31a.46.46,0,0,1-.2,0c-.09,0-.1,0-.16,0s-.16-.12-.16-.25a1,1,0,0,1,.12-.48.39.39,0,0,0,.05-.28c-.05-.2-.22-.37-.23-.59a1,1,0,0,0,.25-.2c.07-.07.06,0,0-.13a1.72,1.72,0,0,0-.07-.21c-.09-.23-.18-.46-.26-.7s-.08-.21-.13-.32a1.15,1.15,0,0,0-.06-.17c0-.08,0-.11,0-.18a1.85,1.85,0,0,0-.12-.33c0-.12-.1-.25-.14-.37a.57.57,0,0,1-.06-.31.35.35,0,0,1,0-.13c0-.06.08-.1.11-.15a.31.31,0,0,0,0-.28,1,1,0,0,1,0-.16.06.06,0,0,0,0-.07s0-.08-.05-.12.05-.18,0-.29-.09-.25-.14-.37-.17-.2-.16-.34a.21.21,0,0,1,0-.13c.05-.08.09-.07.16-.14s0-.09,0-.12,0-.09,0-.15a2.11,2.11,0,0,0-.1-.61l-.44-1.2c-.14-.4-.28-.79-.43-1.19,0-.1-.07-.19-.1-.29s-.11-.13-.14-.23-.07-.19-.11-.28,0-.15-.06-.16-.18.07-.23.08a.5.5,0,0,1-.27,0c-.16-.09.13-.25.05-.37-.17,0-.56.34-.68.21s0-.29-.15-.28l-.11.06a.06.06,0,0,1-.07,0,1.34,1.34,0,0,1-.18.07l0-.06-.14.05c0-.07,0-.17-.1-.23a.56.56,0,0,0-.2-.11,1.47,1.47,0,0,0-.31.15l-.33.16c.12,0,.06-.11,0-.17s-.06-.06-.21-.05l-.12,0h-.11c-.07,0-.17-.1-.11-.18s-.19,0-.26,0-.21.08-.3.06-.06-.26-.12-.34a.2.2,0,0,0-.12-.1c-.1,0-.15,0-.24.08s-.05,0-.14,0-.15,0-.2-.06,0-.2,0-.3,0-.08,0-.12,0-.08,0-.11a1.31,1.31,0,0,0-.09-.28.5.5,0,0,0-.05-.13s-.09,0-.14,0-.06,0-.11,0-.13.08-.2.1c-.06-.17-.36-.12-.38-.3s.05-.15.05-.21a.66.66,0,0,0-.11-.24.92.92,0,0,1-.27.08c-.08,0-.06.06-.12,0s0-.09,0-.12a2,2,0,0,0-.24-.56,1.52,1.52,0,0,1-.32.11.82.82,0,0,0-.34.06s-.05-.21-.11-.22-.21.15-.29.13,0-.09-.06-.11-.07,0-.13,0a.25.25,0,0,1-.13-.17c0-.07.05-.13,0-.2a.5.5,0,0,1-.08-.07s0-.09-.05-.12-.12-.06-.23-.06a.34.34,0,0,1-.23-.09.3.3,0,0,1-.13-.19c0-.07.08-.13.1-.2s-.06-.17-.05-.26a.4.4,0,0,0,0-.24,1.9,1.9,0,0,0-.31-.6.9.9,0,0,1-.15-.19c0-.07-.13-.2-.12-.28s.12-.08.18-.15,0-.09.09-.13a1.48,1.48,0,0,1,.25-.14.06.06,0,0,1,0-.06l.11-.06c.08-.07,0-.11,0-.14s-.22,0-.27-.14-.05-.11-.07-.16-.06-.1,0-.18l.12-.05a.1.1,0,0,0,0-.07l.25-.13c.11-.07.1,0,.08-.14a.48.48,0,0,0-.09-.19l-.09,0s-.11,0-.12-.08a.06.06,0,0,1,0-.07.25.25,0,0,1,0-.12.42.42,0,0,1,.07-.13.33.33,0,0,1,.1-.06s0-.06.06-.09l.12-.13.13-.16c.06-.12-.08-.24-.09-.35l.14-.09a1.38,1.38,0,0,0-.15-.4l-.18-.45-.16-.4,0-.11-.74.42-.16.09c-.12.05-.09.06-.15,0s0-.24-.16-.22a1.2,1.2,0,0,0-.17.11c-.07,0-.1,0-.18.05s-.28.19-.43.24l0-.05c-.09.05-.16,0-.24,0v-.09l-.16.05c-.05-.05-.05-.15-.1-.2s-.15.12-.26.08-.13-.13-.15-.23,0-.05,0-.09l-.09-.05c-.11,0-.17.05-.28.09a1.12,1.12,0,0,0-.13.05l-.12.07a.11.11,0,0,1-.08,0c-.22.1-.43.28-.66.38a3.06,3.06,0,0,1-.38.1,2.15,2.15,0,0,1-.27.1,7.1,7.1,0,0,0-1.18.57c-.23.13-.48.34-.7.3a1,1,0,0,0-.55.13,1,1,0,0,1-.41.1c-.07,0,0-.12-.11-.09s-.19.15-.28.18-.07,0-.12,0-.11.11-.19.07,0-.14-.08-.14-.15.1-.21.13-.19.05-.29.09a1.67,1.67,0,0,0-.24.16,3.47,3.47,0,0,1-.67.38c-.11-.13-.14-.36-.28-.47-.14.09-.26,0-.39,0a1,1,0,0,0-.39.11,1.16,1.16,0,0,1-.2-.32l-.19-.35-.21-.37s0-.14-.09-.14-.19.13-.26.16-.16,0-.26.07l0,0-.1,0c0-.05-.12-.06-.17-.12s-.22-.06-.38,0a2.25,2.25,0,0,1-.36.06.2.2,0,0,1-.23-.16c0-.06,0-.2-.13-.2a2.34,2.34,0,0,0-.49.33c-.08.06-.12.12-.19.09s-.06-.15-.1-.2-.22.07-.37.07-.06-.06-.12-.08-.12,0-.16-.05,0-.28-.21-.24-.12.07-.19.09-.1,0-.2.05c-.08-.09-.16-.11-.22-.21s-.05-.15-.09-.18a.16.16,0,0,0-.17,0,1,1,0,0,0-.18-.05.6.6,0,0,1-.2.25c-.07,0-.13-.06-.19-.08l-.1,0s0-.1-.07-.11-.22.13-.3.16-.12-.09-.16-.15-.09-.06-.19-.08-.11-.11-.17-.13-.16,0-.23-.09a.71.71,0,0,1-.18.08h0a.3.3,0,0,1-.25,0c-.06,0-.06-.14-.11-.19s-.12-.06-.17-.13a2.9,2.9,0,0,1-.34.19,11.62,11.62,0,0,0-1.37.68.37.37,0,0,0,.21,0c.08,0,.25-.15.32-.14s.13.18.17.24a.2.2,0,0,1,0,.31c0,.1,0,.22.1.29.17-.12.31-.12.48-.25s.27-.09.35.05.06.16.12.17a2,2,0,0,0,.23-.1A2.53,2.53,0,0,0,222,337l.18-.07a.63.63,0,0,1-.28-.42.76.76,0,0,1,0-.26c0-.07,0-.11,0-.15h0l.22.36c.06.11.12.32.24.36a.55.55,0,0,1-.23.11h0c.06,0,.15,0,.2.06a.78.78,0,0,0,.18.11.32.32,0,0,0,.22,0L223,337c.05,0,.07.1.1.14s.13.33.32.29.24-.11.33-.12.16.05.23.13.1,0,.23,0a.59.59,0,0,0,.13,0,1.47,1.47,0,0,0,.14-.06c.12-.05.17-.07.23,0s.08.19.15.27.1,0,.23,0l.25-.07c.29-.05.18.24.36.3s.17,0,.23,0,0,.12,0,.24a1,1,0,0,1-.56.36c-.09,0-.06.08-.13.05s0-.09-.07-.12-.07-.11-.22,0a2.29,2.29,0,0,1-.33.24c-.11,0-.15-.12-.18-.19s-.08-.11-.23,0-.26.23-.3.17.07-.16,0-.24-.15-.09-.22-.12a.72.72,0,0,1-.25-.12c-.08-.08-.13-.07-.28.05s-.17.12-.23,0-.13-.09-.19-.17a3.24,3.24,0,0,0-.49.36,1.77,1.77,0,0,1-.22.16c-.13.09-.12.06-.17,0s-.11-.26-.25-.3a.44.44,0,0,1-.3-.2s0-.13-.09-.15-.13.09-.23.12-.11,0-.16-.07-.12,0-.17,0-.06-.07-.12-.07-.12.06-.25.13a.19.19,0,0,1-.28,0c-.06,0-.21.09-.25.06s0-.14-.07-.2,0-.17-.2-.07-.26.25-.4.27-.13-.07-.18-.15l-.18-.28s0-.11-.06-.12-.06,0-.13,0a1,1,0,0,0-.33.15.77.77,0,0,1-.14-.21c-.08-.13-.11-.07-.29.07a5.67,5.67,0,0,1-.89.64.27.27,0,0,1-.23,0c-.13,0-.17,0-.24-.07a.62.62,0,0,0-.2-.15l-.1,0a.06.06,0,0,0,0-.06l-.08,0c-.08,0-.1-.08-.2-.06a1.57,1.57,0,0,0-.32.15,1.42,1.42,0,0,1-.33.16c-.12,0-.13-.14-.19-.2s-.09-.05-.22,0a.44.44,0,0,0-.15.08c-.08.06-.11.13-.19.1s-.1-.19-.16-.25-.18,0-.24-.07l-.15.11s-.16-.1-.18-.11-.19-.06-.26-.12-.18.16-.21.06.06-.14.12-.21l.1-.09s0-.15,0-.13a1.64,1.64,0,0,0,0-.22c-.21.12-.44.45-.62.35s-.18-.39-.35-.49c-.11.09-.19.11-.29.19s-.14.13-.24,0-.13-.05-.18-.13l-.17-.24c-.1-.16-.21-.31-.31-.46s-.13-.1,0-.24.24-.14.36-.24c.3-.25.1-.37,0-.51a1.07,1.07,0,0,1-.15-.22c0-.09,0-.17-.09-.26a.25.25,0,0,0-.17-.13c-.12,0-.15-.08-.21-.16a2.5,2.5,0,0,0-.21-.35s0-.07-.07-.07-.08,0-.11,0-.08-.08-.18,0-.23.15-.37.13a.35.35,0,0,1-.2-.13c-.1-.12-.18-.25-.44-.07s-.18.19-.28.13-.09-.09-.14-.12-.08-.07-.21,0c-.34.23-.64.68-1,.63,0,0-.12-.11-.13-.16s.06-.23-.09-.15l-.12.11c-.09.06-.1,0-.18,0s-.25.22-.34.22-.08-.1-.07-.17,0-.07,0-.12-.06-.08-.08-.1-.12-.28-.33-.24a.36.36,0,0,0-.22.1c-.11.08-.22.25-.31.22s-.11-.16-.15-.2a.54.54,0,0,0-.16-.21c-.17.14-.38.5-.58.51s-.1-.16-.1-.27,0-.3-.21-.24l-.12.08c-.07,0-.13,0-.19.09a2,2,0,0,0-.38.34c-.14.12-.24.16-.37.27a4.38,4.38,0,0,0-.39.36c-.18.17-.22.23-.31.11s-.08-.16-.27,0l-.43.4c.16-.11,0-.2,0-.26s0-.12,0-.16,0-.07-.15.05a2.16,2.16,0,0,1-.37.37c-.14.1-.27.12-.31,0s0-.26-.15-.21-.3.3-.42.32-.08-.08-.11-.1a.24.24,0,0,0-.16,0,2,2,0,0,0-.22.2c-.05,0-.13.07-.2.13s0-.1-.1-.13-.12,0-.17-.06l-.29.2a2.77,2.77,0,0,0-.22.29.44.44,0,0,1-.41.19.58.58,0,0,0-.46,0,3.9,3.9,0,0,0-.67.57c-.1.08-.16.1-.25.18a2.27,2.27,0,0,1-.31.25c-.17.1-.11,0-.21,0s-.2.16-.31.24l-.06,0a10.93,10.93,0,0,0-.85.84c-.35.35-.69.71-1,1.07a3,3,0,0,1-.54.43,1.57,1.57,0,0,0-.25.2c-.06,0-.06,0-.13.08s0,.24,0,.29c-.09-.16-.2-.32-.48,0-.15.18-.05.14,0,.24s0,.21,0,.29l-.31.21c-.19.15-.7.76-.8.87a4.32,4.32,0,0,0-.46.51c-.13.2,0,.22.1.31s-.12.32-.29.51-.36.46-.46.45-.19-.22-.25-.29-.32-.34-.61-.08a1.16,1.16,0,0,0-.2.24c-.06.15,0,.09.1.13a.28.28,0,0,1,.12.12c0,.08-.08.17-.1.27s-.13.1-.18.16-.06.15,0,.21.15.26.25.29a.58.58,0,0,1,.14,0,.07.07,0,0,0,.06,0l.09,0c.07,0,.07.06.13.07s.11-.07.19-.16.12-.16.19-.15.09.1.11.13a.29.29,0,0,1,.06.19c0,.05,0,.1,0,.15a.67.67,0,0,1,0,.2c0,.11-.06.12-.15.22s-.11.19-.18.28-.12,0-.2.1c.09.07-.22.38-.32.48a.53.53,0,0,1-.41.22c-.16,0-.12-.2-.35.07-.09.11-.39.39-.38.51s.23.09.2.21-.3.31-.36.43,0,.07,0,.12a.89.89,0,0,1,.08.17s.07.07.06.1a1.18,1.18,0,0,1-.19.25,1.25,1.25,0,0,0-.19.15,1.92,1.92,0,0,0-.18.22s0-.05,0-.06a1.68,1.68,0,0,0-.25.29c0,.07.11.13.14.16s.13.06.07.18-.17.14-.24.21a.57.57,0,0,0-.19.62l.07.06c0,.09,0,0-.08.15a2.12,2.12,0,0,0-.11.21c0,.08,0,.09,0,.18l-.07,0a11.71,11.71,0,0,0-.77.92c-.13.17-.32.37-.43.55l0,.07a1.3,1.3,0,0,0-.13.3,2.33,2.33,0,0,1-.2.34.41.41,0,0,1,0,.45,5.2,5.2,0,0,1-.62.8c-.05.07-.27.3-.28.38s.17.08.14.23a4.08,4.08,0,0,1-.58.81,8.13,8.13,0,0,0-.63.82c.06.08,0,.2.09.29s.15.08,0,.33l-.34.45a3.19,3.19,0,0,1-.34.44c-.06,0-.43-.32-.42-.39s.1-.14.13-.19a1.37,1.37,0,0,0,.17-.23q0-.09,0-.09c0-.11-.05-.17.07-.37s.24-.31.34-.45a3.5,3.5,0,0,0,.35-.46c.09-.18-.13-.12-.14-.23s.18-.3.27-.42l.69-.89a1.35,1.35,0,0,0,.16-.19c.07-.15,0-.06-.06-.08a.39.39,0,0,1-.21-.19,1.57,1.57,0,0,0,.19-.33,1.86,1.86,0,0,1,.29-.42c.16-.2.22-.25.11-.34s-.14-.09,0-.31c.45-.55.89-1.15,1.36-1.67-.08,0-.12,0-.16-.08s-.14-.07,0-.25.56-.58.54-.71-.08-.05-.1-.09,0-.09,0-.12-.11-.06.07-.28.44-.81,0-.48a9.59,9.59,0,0,0-1.13,1.3c-.18.22-.37.49-.56.69s-.12.11-.19,0-.23-.05-.35-.1a3.76,3.76,0,0,0-.25.31c-.13.16-.16.25-.26.19s-.08-.15-.15-.13-.24.23-.33.32a5.14,5.14,0,0,0-.51.45c-.19.25-.4.54-.6.77s-.11.09-.2,0-.14,0-.2-.07-.09-.16-.15-.16-.22.18-.31.26-.12.1-.2.07-.1-.08-.2-.08-.26,0-.1-.21.4-.43.38-.56-.15-.06-.16-.14.1-.19.18-.3a1.41,1.41,0,0,0,.24-.32c0-.09-.13-.07-.14-.15s.11-.17.18-.29a1.81,1.81,0,0,1,.17-.29l1-1.29c.16-.21.37-.43.52-.64s.08-.15,0-.22-.08-.14-.15-.13-.33.26-.47.43l-.52.65c-.18.21-.35.43-.52.65s-.31.25-.47.46l-.52.66c-.11.14-.39.57-.49.57l-.06-.07s0,0-.11,0-.12,0-.22.17a1.69,1.69,0,0,1-.18.3,3.08,3.08,0,0,1-.35.44s-.1,0-.13,0a.38.38,0,0,1-.16-.12c-.09-.08-.23-.14-.28-.25s.21-.36.33-.5.35-.45.51-.67l.51-.65c.08-.11.18-.22.25-.33s.06-.19.11-.27c.18-.3.9-.94.78-1.19s-.26.07-.42.26a5.26,5.26,0,0,1-.51.65c-.14.06-.17-.26-.28-.26s-.39.44-.5.58-.35.45-.53.66a138.54,138.54,0,0,0-16.35,44.72l1.06.25c1.06.28,2,.55,2.95.82l.7.21.11,0c.86.27,1.72.55,2.57.86a24,24,0,0,1,7.42,1,57.06,57.06,0,0,1,7.35,2.37,20.77,20.77,0,0,1,7.12,4.95,8.9,8.9,0,0,1,2,8,20.88,20.88,0,0,1-1.28,4,17.51,17.51,0,0,1-2.07,3.64,16.25,16.25,0,0,1-3.88,3.79,15.56,15.56,0,0,0,1.91-1.18c1.21-.93,2.94-1.34,3.82-2.56a12.1,12.1,0,0,0,1.89-3.25c.07-.18.48-.86.54-1l.34-.56c.1-.35.24-.72.33-1.08.16-.72.65-1.89.75-2.67a12.05,12.05,0,0,0-1-4.91c-.56-1.54-2.25-3.08-3.48-4.17a14.66,14.66,0,0,0-4.11-2.54l-.91-.35a62.77,62.77,0,0,1,15.31.61c.53.1,1.06.2,1.59.32,1.31.3,2.6.65,3.87,1.07a27.15,27.15,0,0,1,5.11,2.25,19.63,19.63,0,0,1,7.65,7.58.13.13,0,0,0,.09,0,.08.08,0,0,0,.06-.09,12.86,12.86,0,0,0-3.54-6.16,44.56,44.56,0,0,1,16.48,1.41,5.79,5.79,0,0,0,1.85.22,17.93,17.93,0,0,1,2.74,0,26.62,26.62,0,0,1,4.72,1.07l4.47,1.29a5.68,5.68,0,0,0,3,.07,43.06,43.06,0,0,1,11.15-1.43A26.1,26.1,0,0,1,277.46,414a5.89,5.89,0,0,0,4.24,1.23.93.93,0,0,1,.1.2l.43-.23c1.14,2.12,2.27,4,3.17,6,1.65,3.6,3.32,4.91,7.24,4.54,2.42-.23,5.15-.59,7.09-1.87a195,195,0,0,0,17.66-12.94c3.68-3.08,3.35-7.66,2.39-12-1,4.1-.89,7.2-4.65,10.18-5,3.95-9.25,8.6-14.75,11.73a26.4,26.4,0,0,1-9.79,3.06,4.31,4.31,0,0,1-3.22-1.83,42.81,42.81,0,0,1-7-19.05c-.56-4.3-1.95-8.49-2.73-12.77-1.16-6.36.2-13.28,2.3-19.33a26.69,26.69,0,0,1,10.59-13.93c5-3.54,11.38-4.6,17.34-3.8,12.29,1.65,21.69,13.52,19.22,24.53l-5,3.37c.16.23.31.46.46.7l1.18-.68c3.08-1.83,5.3-1,6.24,2.46a7.83,7.83,0,0,1-1.46,7.27c-1.24,1.57-2.6,3-3.82,4.63-2.08,2.71-2.05,2.73-5,1.1.61.84,1.5,2.16,2.15,2.05,1.43-.23,2.74-1.19,4.19-1.9,1.13,9.51,1.47,20.23,2.6,29.81.07,0,.9-.26,1-.25l0-14.66c6.62,2.58,12.72,6,17.33,11.31,4.81,5.52,11.47,7.61,17.55,10.73,3.7,1.89,6.86,4,9.09,7.47,4.64,7.22,5.6,15.2,4,23.35-1.11,5.73-3.29,11.25-5,16.84l1.29-.7c3.68,10.55,3.94,17.12.75,23.21-2.24-7.95-7.27-13.61-12.95-19-3.14-3-5.27-7.07-8.06-10.95l9-5.2c-.06-.15-.12-.29-.17-.43-2,.73-3.34.93-6.09,1.92a14.72,14.72,0,0,0,3.21-7.72l-.28-.19c-2.24,3.14-4,7.17-6.1,10.18-3.92-4.22-5.9-9.58-7.25-15.25,1.27,10.71-1.65,17-9.73,20.88-4.67,2.25-7.81,2-11.33-1.81a21.86,21.86,0,0,1-4.87-7.87,13.53,13.53,0,0,0-4.32-6.63c-2.69-2.87-5.36-5.75-8.42-9,1.79,4.76,3.63,8.77,8.16,10.83,2.89,1.32,3.21,2.24,2.05,5.08-.23.56-.42,1.13-.63,1.7-7.63,2.85-12.57.6-15.66-7.11-3.87-9.69.36-20.71,8.11-26.67,5.55-4.27,10.68-6.14,16.73-2.64,8.94,5.17,15.6,12.39,19.35,22.13a12,12,0,0,0,.64,1.23c-.35-5-2.91-9.09-5.91-12.71a69.57,69.57,0,0,0-10.59-10.28c-12.09-9.47-23.77-2.35-28.45,6.42a25.83,25.83,0,0,0-.36,24.68,13.92,13.92,0,0,0,5.51,6.29,15.41,15.41,0,0,1-1.68.18,18.36,18.36,0,0,1-3-.11c-1-.11-2-.26-3-.45a38.34,38.34,0,0,1-5.78-1.52,37.24,37.24,0,0,1-5.26-2.28,39.66,39.66,0,0,1-8.2-5.73,38.65,38.65,0,0,1-4.71-5.07c-.51-.66-.88-1.19-1.13-1.56s-.36-.56-.36-.56a.11.11,0,0,0-.14-.05.11.11,0,0,0,0,.12h0s.09.22.28.62a19.18,19.18,0,0,0,.92,1.7,26.07,26.07,0,0,0,1.7,2.52c.35.47.75,1,1.17,1.49s.92,1,1.43,1.57,1.06,1.08,1.66,1.63,1.24,1.09,1.92,1.63a34,34,0,0,0,4.59,3.1c.85.48,1.73.94,2.64,1.36.46.22.92.43,1.4.63s.95.38,1.44.55a39.12,39.12,0,0,0,6.09,1.67c.53.1,1,.18,1.58.25l.8.11.75.08a20.71,20.71,0,0,0,3.34.09,14.65,14.65,0,0,0,4.49-1,10.56,10.56,0,0,0,3.23,0c1.55-.21,2.95-1.51,4.42-2.33l.06,0,0,0-.05.06,1.37-1.15c2.33,3.15,4.58,6.35,7,9.43,1.61,2.06,3.45,3.93,5.14,5.92a15.17,15.17,0,0,1,1.05,1.44c-.51-1.53-1-3.07-1.55-4.59,9.44-1.24,15-6.11,17.46-15.67.42.67.77,1.2,1.1,1.75,3.06,5.25,5.95,10.62,9.24,15.72,2,3.1,2.3,6.21.51,9.11-3.48,5.63-8.41,9.59-15.27,10.26-5.72.55-9.28-2.79-9.74-8.43a35.29,35.29,0,0,0-1-5.24c0,.86.09,1.71.17,2.57q.27,2.58.6,5.16a11.54,11.54,0,0,1-3.55,1.6c-.63.2-1.26.34-1.86.48l-1.72.37-2.59.51-1,.2c-.05,0-.09.05-.07.1a.1.1,0,0,0,.1.07l1-.08,2.65-.2c1.11-.1,2.4-.22,3.78-.48a13.68,13.68,0,0,0,3.41-1.1c.08.57.15,1.15.23,1.73a26.77,26.77,0,0,1,.74,3.44,43.83,43.83,0,0,0,.29,5.41,16.83,16.83,0,0,1-.7,2.26,10.89,10.89,0,0,1-1.13,2.14c-.1.16-.26.33-.39.5s-.26.28-.39.42l-.45.4-.48.36a15.71,15.71,0,0,1-4.31,1.88c-.68.19-1.32.36-1.9.49l-1.5.32-1.31.26a.09.09,0,0,0-.08.1.12.12,0,0,0,.11.07h0l1.35-.13,1.55-.19c.6-.09,1.26-.2,2-.34a16.28,16.28,0,0,0,4.8-1.64h0a2.55,2.55,0,0,1,.19.4,1.69,1.69,0,0,1,.1.27,3,3,0,0,1,.08.32c0,.23.07.49.09.77s0,.59,0,.92,0,.69,0,1,0,.77,0,1.17a10.29,10.29,0,0,1-.08,1.23c-.11.82-.29,1.65-.45,2.42-.09.39-.18.76-.27,1.12s-.17.69-.25,1c-.35,1.23-.62,2-.62,2a.08.08,0,0,0,.07.11.11.11,0,0,0,.11,0s.49-.74,1.1-1.91c.31-.59.66-1.28,1-2,.16-.38.33-.77.47-1.18s.29-.83.42-1.25.25-.85.37-1.28a6.45,6.45,0,0,0,.22-1.29,4.53,4.53,0,0,0,0-.64,4.41,4.41,0,0,0-.09-.62,4.48,4.48,0,0,0-.38-1.12,3.83,3.83,0,0,0-.59-.89,2.9,2.9,0,0,0-.67-.55,1.72,1.72,0,0,0-.44-.21l.29-.19.58-.43c.17-.16.35-.3.53-.49s.3-.3.45-.5a11.29,11.29,0,0,0,1.23-1.86,28.59,28.59,0,0,0,5,11.2,7.9,7.9,0,0,1,.76,2,27.13,27.13,0,0,1-19.7,9c-4.54.06-9.06-.08-13.58-.25a154.47,154.47,0,0,1-25.21-3.58c-5.48-1.13-11-2.3-16.13-4.5a14.06,14.06,0,0,1-4.12-2.45c-.21-.2-.42-.42-.61-.64-1.45-1.71-1.53-3.78-1.81-5.91-.32-2.38-.62-4.76-.88-7.14a122.75,122.75,0,0,1-.92-14.47c0-7.2,0-10.4,1.53-15.3.53-1.72,2.05-9.93,3.88-14.79-.34-.36-.71-.7-1-1.08a52.61,52.61,0,0,1-4.33-5.57c-.44-.65-.88-1.31-1.3-2-.78-1.28-1.53-2.59-2.28-3.89l-4.71-8.17h1.78a28.18,28.18,0,0,1,3.49.22,14.21,14.21,0,0,1,3.22.88c2.09.79,3,2.26,4.78,3.75a59.48,59.48,0,0,1,5,4.42c.75.77,1.67,1.56,2.42,2.33,0-.56,0,0,0-.56l-1.47-2.27c-1.58-1.8-2.16-3.43-4-5.05a21.26,21.26,0,0,0-6.19-4,15.56,15.56,0,0,0-3.62-.94,24.54,24.54,0,0,0-3.73-.19c-2.48,0-4.93.13-7.41,0a72.07,72.07,0,0,1-10.46-1.11c-1.42-.26-2.83-.57-4.22-.91a39.1,39.1,0,0,1-13.4-5.92,6.73,6.73,0,0,0-3.19-1.21,61,61,0,0,1-9.95-1.85c.42-.17.83-.34,1.24-.54a9.3,9.3,0,0,0,3.53-2.87c0-.05,0-.08,0-.1a.08.08,0,0,0-.11,0,19.31,19.31,0,0,1-3.94,1.89,21.85,21.85,0,0,1-4.33,1,28,28,0,0,1-4.49.27c-1.3,0-2.61-.11-3.91-.26-1.92-.29-6-1.53-7.83-2.08.88-1.72,2.16-3.33,3.19-5a13.31,13.31,0,0,0,1.42-6,24.31,24.31,0,0,0-2.17-10.88,21,21,0,0,0-2.25-3.25c-.75-1-2.43-1.5-3.44-2.26-.29-.22-.6-.4-.89-.6a11.93,11.93,0,0,1,2.05,2.37,16.9,16.9,0,0,1,1.45,2.92,24.61,24.61,0,0,1,1,3.12,23.85,23.85,0,0,1,.47,3.27c.17,2.2.33,4.42.38,6.63a29.29,29.29,0,0,1-.49,6.61,16.71,16.71,0,0,1-.69,2.39c-.12.32-.26.64-.4.95a13,13,0,0,1-1.66,2.66c-4.42,5.37-10.1,10-16.53,12.28-.14.33-.28.65-.44,1a139.55,139.55,0,0,0,83.09,103,63.17,63.17,0,0,1,1.94-12.88c.84-2.93,1.38-5.61,2.79-8.34a28.38,28.38,0,0,1,2.25-4.17c.24-.31,4-3.94,3.91-4.16.83,2.11,1.18,6.57,2.86,8.14a10.22,10.22,0,0,0,2.82,1.66c8.19,3.65,16.88,8,25.74,9.61a122.47,122.47,0,0,0,29.75,1.62c6.51-.38,12.58-3.79,17.77-7.6,1.5-1.1,2.48-2.85,3.7-4.3h0c2.3.83,4,2.17,4.33,4.69.45,3.34,1,6.67,1.33,10a20.25,20.25,0,0,1-1,9.32,139.38,139.38,0,0,0-44.3-271.52Zm-55.65,49.43a.36.36,0,0,1,0-.09l0,0c-.11-.05-.13-.23-.17-.33a1.4,1.4,0,0,1-.13-.34c.25-.15.54-.27.8-.4l.75-.36a3,3,0,0,1,.28.72C246.14,329.65,245.58,329.85,245.11,330.15Zm1.27-2.32c-.32.16-.62.21-.95.37-.15.08-.3.18-.42.14s-.15-.19-.32-.15-.59.4-.86.35-.12-.19-.25-.24-.36.08-.48.17-.23.21-.45.22-.12-.1-.2-.19-.21,0-.37.09l-.43.22a2.93,2.93,0,0,0-.43.23c-.18.13-.12.18-.09.3s0,.2-.2.29a1,1,0,0,1-.23.12c-.13,0-.07,0-.12,0a1.16,1.16,0,0,1-.22-.55c0-.22.56-.39.78-.54s.07-.16,0-.28,0-.19.22-.3a4.25,4.25,0,0,1,.43-.21,2.37,2.37,0,0,1,.47-.2c.11,0,.09,0,.13.08s0,.09.12.09a2,2,0,0,0,.44-.13,2.58,2.58,0,0,0,.44-.22c.12-.06.35-.25.46-.19s0,.21.19.23a.75.75,0,0,0,.44-.13,1.23,1.23,0,0,1,.46-.17c.15,0,.11.21.26.23s.22-.09.31-.12.22,0,.29.07,0,.15.21.09.24-.11.36-.14.22.2.24.29S246.49,327.78,246.38,327.83Zm4-.59a3.66,3.66,0,0,1-.43.15c-.15.06-.28.15-.42.22a7.76,7.76,0,0,1-.86.35c-.06,0-.13.08-.18.06s0-.07,0-.12a4.24,4.24,0,0,1-.21-.57c.14-.06.51-.16.54-.25s-.06-.13-.09-.18a1.55,1.55,0,0,1-.08-.23c.22-.12.52-.17.76-.28s.22-.14.29,0a1.21,1.21,0,0,0,.15.22,1.31,1.31,0,0,1,.47-.16c.17,0,.17.14.21.25s.07.21.11.31S250.59,327.16,250.39,327.24ZM374.86,516.67a13.56,13.56,0,0,1-4.3,9.13c-.75-2.49-1.42-4.7-2.08-6.92l-.73.21c.2,1.1.46,2.19.6,3.3.55,4.35.29,8.58-2.54,12.21-2.63,3.37-6.52,4.16-9.48,1.63a184,184,0,0,1-13.7-12.47C337,517.86,335,510.42,334.9,502c6,3.49,12.74,4.32,18,.62,4.94-3.49,8.26-8.81,7.43-16.25,2,1.93,3.81,3.38,5.3,5.08C372,498.65,375.7,506.85,374.86,516.67ZM301,282.71c1.55-.06,3.11-.1,4.66-.11q3,.25,6,.63c1.48-.07,1.62-.28,2.37.23s-.46.75-.93,1-1.47,0-1.66.37-.09.41-.5.68-2.14.34-2.28-.32-.86-.64-2-.67-.19.59-1.1.95-2.39-.55-2.39-.55l-.28-.08c-.21-.44-1.11-.26-2.51-.88S301,282.71,301,282.71Zm-21.59,11.12a9.3,9.3,0,0,1-2.2.33,6.33,6.33,0,0,1-2.94-.8,1.66,1.66,0,0,1,.37-.51c.2-.14.7-.07,1-.56s1.93-.32,3.05-.61,1.32.05,2.45-.13.76,0,1.5.32-.55.47-.93,1.06S280.46,293.48,279.38,293.83Zm43.17,43.43-.62.67c-.09.48-.17,1-.26,1.44l-1,.12c-.11.66-.22,1.31-.34,2l-.84,1.25-1.6-.31-.84-.16c.11-.72.21-1.45.32-2.17l.95-.43c.11-.75.23-1.49.34-2.23l.92-.1,1.1-.45C322.45,333.15,322.57,337.26,322.55,337.26Zm41.33,38.29c-.26.1-.41,0-1-.24a.92.92,0,0,1-.71-1l.1-.21s-.28-.62-.06-.94.4-.37.78-.09,1.36.73,1.39,1.23S364.15,375.45,363.88,375.55Zm6.22-3.83-.18.57a3.82,3.82,0,0,1-1,.18c-.76,0-.59.36-1.22.65s-.5-.21-1.22.34-.73.19-1.29.33-.66-.51-1.2-.84-1.47-1.47-1.79-1.56-.52-1.27-.79-1.66.36-1-.17-1.17-.16-1.07-.7-1.4-.17-.92-.3-1.43-.33-.58-1-.9-.61-.69-1.24-1.11-1.11-1-1.48-.86a3.67,3.67,0,0,1-1,.22c-.56,0-1.42-.74-1.66-.72s-1-.47-1.6-.56-.53-.3-.9-1.05.56-.59.84-.87a2.38,2.38,0,0,0,.21-2.24,2.05,2.05,0,0,1,.48-1.95c1-1.42,1.6-1,2-1.25s1.32.14,2,.61.8.72,1.33.26a4.36,4.36,0,0,1,1.73-.78c.91-.31.83,0,1.47.16s.38-.29,1,.25.34.44.86.82.63-.37,1.19-.72.31-.17,1.15.23.38.47.55,1,.11.24,1,.44.78.43.71,1,0,.83-.59,1.13-.37.56-.07,1.05.3,1,.47,1.17,1-.22,1-.22l1-1.13c.9-.84,1-.34,1.32,0s-.09.76-.37,1.32.26.47.39,1-.33,1.15-.59,1.52.17.66.14,1.15a1.84,1.84,0,0,0,.2,1,12.88,12.88,0,0,1,.24,1.56,3.88,3.88,0,0,1-.11,1.28,7.69,7.69,0,0,0,.56,1.19A15.68,15.68,0,0,0,370.1,371.72Zm-6.6-22.65c.16,0-.7.8-.7.8s-2.07-1.4-2.18-1.46.35-.66.35-.66l-.09-.89.33-.62-1-.66-.64,1.25-1.1-.69-.5-.27a7,7,0,0,1-1.14-1.49c-.23-.55,0-.77-.34-1.14s.17-1.11.17-1.11.74-.39.9-.52.29-.4.81,0a1.21,1.21,0,0,0,1,.26,4.91,4.91,0,0,0,1.62-.07c.36-.2,1,.14,1,.14s.7-.86.75-.94a4.39,4.39,0,0,1,.79-.42,9.45,9.45,0,0,0,1.33.21c.67.05.53-.58.92-.6s0-.76.08-1.38.67-.64,1-1,.88-.3,1.36-.37.5.42.58.87-.33.79-.77,1a.59.59,0,0,0-.39.6,2.84,2.84,0,0,0,1,1.22c.64.33,0,.92.22,1.54s-.18.7-.72.77.2.8.2.8a8,8,0,0,1-.12,1.34c-.13.58-.79,0-1.33,0s-.94-.89-.94-.89a2.28,2.28,0,0,0-.43-1.24c-.44-.57-.27-.49-.06-1.17s-.1-.69-.1-.69a5,5,0,0,1-1.08,0,1.1,1.1,0,0,0-.81.13l-.63.4a2.19,2.19,0,0,1,.69.88c.09.41-.48.8-.48.8l-.43-.27-.53.81,0,.83c.17.17.33.34.49.52l.5-.34,1,.78,1.11.45.68.28s-.21.56-.37.65-.29.51-.29.51l-.72-.51-.37.65-.81-.36-.31.57S363.35,349.07,363.5,349.07ZM368,336s.29-.55.45-.83.28-.52.28-.52a6.27,6.27,0,0,1,1.29,0c.42.08.09,1.28.09,1.28l-.62-.2-.27.48-.65-.05A1.62,1.62,0,0,1,368,336Zm9.89,25.67c-.2.11-.27.05-.83-.05s-.76-.45-1.27-.83-.85-.78-1.14-.77-.18.17.09,1.11.64,1.11.14,1.25.14.8,0,.75a5.79,5.79,0,0,1-1.43-1.31c-.89-1-.3-1.05-.36-1.66s-.13-1.14-.7-1-.77.39-1.11,0-.89-.51-1.19-1.22-.74-.23-.85-1.11.19-.87.53-1.54-.09-.37-.61-.73-1,.21-1,.21-.47.4-.62,0,.15-.57.25-1.23,0-.61-.36-1-.94-.63-1.45-1.08-1.62-.7-1.54-1.11-.43-.78.5-.87.58-.1.58-.1,1.41-1.42,1.42-1.52,1.15,1,1,1.53.49,1,.58,1.08,1.33.65,1.3,1a1.08,1.08,0,0,0,.26,1.13c.45.48,1.16.23,1.19.54s1.47,1.44,1.41,1.53a12,12,0,0,0,.54,1.66c.2.6.6.43.7,1.41s.11.56.52,1.09.41.36.82.73a6.9,6.9,0,0,0,1.27.77s.75,0,.38-.51-.44-1-.13-.91.92.2.83.42.35.72.32.91.29.09,0,.53S378.06,361.55,377.85,361.67Zm40-8.35-.77-1.56c-.14-.36-.29-.72-.43-1.09l-.68-1c-.28-.15-.56-.31-.84-.45l-.92.55-.79-.25c-.6-.75-1.2-1.49-1.81-2.22l-.55-.14-1.61-1.71-.37.05-.51-.52-.42.16-1.33-1.68c-.53-.62-1.07-1.23-1.61-1.84l-.82-.63-.63.5-.61.52-.65-.07-.61-.55-.41.37-.57-.65-.28.28-.76-.47-.49.23-.56-.23-.68-.06-.57-.33-.36.27-.39-.55c.05-.18.09-.35.13-.53l-.24-.68c.21-.27.43-.54.64-.82,0-.23-.05-.46-.08-.7l.73-.62.61,0,.8.17.6.38.59-.11.62.66.23-.22,1.11.88c0-.22,0-.44,0-.66l-1-1.26-1.16-.87-.41.19-.67-.35-.34.44-.86-.6-1.52-1.66c-.19-.32-.38-.64-.58-1q-2.12-1.86-4.27-3.63l-.48.1-.82-.56-.26.32-.8-.58-.46.14-.64-.4-.63-.07-.7-.51c-.09.14-.18.29-.28.43l1.67,1.49c.56.45,1.11.91,1.66,1.38l.55-.07.47.58-.51,1.39-.94,1.29.63.78-.49.24-.91-.7-.12.18.22.64-.39.43-.58-.39-.09.46,1,1-.18.94-.83-.33-1.09-.91L386,336l0,.7-.61,1.39-.87.32-.51.44-.5-.2-.42.24-1.84-1.54c-.12.14-.23.28-.35.41l-.62-.25-.33.07c-.7-.53-1.4-1-2.1-1.55l-.6.52-.5-.24-.3.23-.7-.63c.13-.41.26-.83.38-1.24l-.39-.61h.84l.72.35.26-.37.4.28.63,0,1.18.69,1.25.84.35-.34.47.37.24-.3.92.79.37-.3,1.5-1.62.81.09.65-.25.75-1.12-.56-.35-1.11.16-.72-.11s-.5-.1-.53,0a2.26,2.26,0,0,1-.48.14l-.69-.6c-.09.21-.19.43-.28.65-.4-.27-.8-.53-1.21-.78-.53-.41-1.06-.82-1.6-1.22l-.65,0-.33.48-1-.28c0,.1-.07.2-.1.3a5.1,5.1,0,0,1,0,.75,8.54,8.54,0,0,0,0,.86l-.72,0-.63.26-.86,0-.83-.78.22-1,.28-.63c-.15-.23-.29-.46-.45-.69.05-.2.09-.39.14-.59l-.46-.55-.76-.5-.39-.81-.77-.57-.49.1-.85,0c-.07.15-.13.3-.2.46l.7.59.93.33.61.62.06.61-.49.24-1-.62c-.09.18-.19.36-.29.53.05.35.1.69.14,1l.75.93-.83.84c0,.06-.57.63-.57.63l-.82.3a2.49,2.49,0,0,0-.66,0,6.74,6.74,0,0,1-.86.25l-.65.25-.67-.44c-.17.19-.33.39-.49.58l-1.2-.83-.7.09-.79-.54-.52.47-1.28-.87c-.18.51-.37,1-.56,1.53l-.9-.48c0-.36.07-.71.11-1.06l.45-.27c0-.21-.07-.41-.11-.61l-.74-.16s-.6.51-.67.44-.62-.35-.62-.35c0,.2,0,.4.05.59s0,.57.07.85.31.34.46.52c-.05.27-.09.54-.14.82l.51.47c-.11.39-.23.77-.34,1.16l-1,.92h-1.09l-.78-.16c-.05.2-.09.41-.14.61l-.77-.38c0-.2-.07-.41-.1-.62l.15-1-.73-.57c0-.24,0-.48,0-.72l-.74-.71c0-.14,0-.28,0-.42l-.58.71-.36,1.43.06.92.76,1.11.57,1c-.15.37-.3.74-.44,1.1.06.3.13.59.19.89l-.42,1,.21,1.24.93.65c-.09.28-.17.57-.26.86l-.55-.28-.38.08c.1.25.19.49.29.73s.16.47.25.71c.89.57,1.77,1.15,2.65,1.74l.34.79.85.73q2,1.28,4,2.65l.65.21.5.64c-.09.29-.18.59-.26.88l-1-.14s-.66.09-.73,0a11.55,11.55,0,0,0-1-.89l.2-.37c-.23-.18-.47-.35-.71-.52l-.29.54-.62-.41c-.06-.21-.13-.42-.2-.64l-1.31-.85-.18-.88-1.67-1-1.53-1.22-1.25-1c-.17-.17-.35-.33-.53-.49s-.17-.47-.26-.7-.07-.69-.11-1c-.37-.6-.75-1.2-1.13-1.79l-.7-.59-.34-.91.79.07c.08-.21.17-.42.26-.63l-.51-.74.27-.64-.53-.85-.68-1.18.24-.61,1,.45c.12.24.23.48.34.72.12.43.24.85.35,1.28.31.35.61.71.91,1.07l.18-.42-.28-.6c0-.2-.05-.41-.08-.62s.13-.52.2-.78l-.18-.43c0-.24-.06-.48-.1-.71l-.41-.21c.34-.81.67-1.62,1-2.42l.46-.14c.08-.29.17-.58.26-.87a3.17,3.17,0,0,0-.31-.74l-.77-.36-1.1-.11c-.07-.25-.14-.51-.2-.77l.45-1-.5-.75c.08-.09.15-.19.22-.28l-.49-.5c0-.24,0-.49.07-.73s-.22-.37-.34-.55l-.86,0-1.43-.38-.64.29-.53.06c0,.15-.08.31-.13.46a5.3,5.3,0,0,1-.8,0c-.08,0-.65.25-.65.25l-.79-.31-.45.48a.63.63,0,0,0-1.09-.06s-.56,0-.58.07-.2,1.22-.22,1.28-.15,1.36-.15,1.36l-.09.65.64.38c0,.21,0,.42.05.63l-.57.84-.72-.2-.84-.61.38-.78-.39-.57-.67.31-.48-.47c-.06-.29-.12-.59-.17-.88s0-.39.05-.59l-.42-.29c.11-.37.22-.73.32-1.1l-.37-.37c0-.4,0-.79.07-1.19-.05-.15-.09-.3-.13-.44.08-.39.15-.77.23-1.15l-.39-.45c.07-.3.13-.59.19-.89l-1-.75-.91-.51v-.6l-.63-.44c0-.19-.06-.38-.08-.58l-.47-.49-.06-.51-1.62-.51-2.41-.61-1.11-.57-1.17-.6-1.15-.43-1-.51c-.12-.25-.25-.49-.38-.73l-.94-.21.55-.51-.84-.74-1-.13s-.27.81-.29.94.22,1,.4,1,1.1.38,1.1.38c.05.33.09.65.14,1a2,2,0,0,0,.6.23c.19,0,.79.59.79.6l1.51.14,1,.63,1.08.7.24.94-1.2.22-.84.61-.83.64-1-.24-.66.8c-.62-.1-1.25-.18-1.88-.26l-1.26.44h-1.54l-1.4-.41-.59-1.18c-.27-.47-.54-.93-.82-1.39.05-.25.1-.5.16-.75l-.49-.56-.7-1.06c0-.29,0-.58,0-.87l-.46-.11-.28-.75-.73-.31s.36-.55.32-.66a3.87,3.87,0,0,0-.46-.57l-.66-.47-1.28-.2a4.05,4.05,0,0,1-.08.76,5.56,5.56,0,0,0,.51,1.44l.59,1.09.85.36c0,.25,0,.51,0,.76l.85.74s-.28.66-.29.76a5.31,5.31,0,0,0,1.09.55,4,4,0,0,1,.17.8c0,.16.69.35.67.45s.89,1.54.88,1.54l1,.8s-.5.28-.38.4a14.27,14.27,0,0,0,1.94.42l1.21-.38,1.34.47c-.2.46-.39.93-.59,1.39l-.84.39-.42.86-.77.51-1,.31c-.28.3-.55.61-.82.92-.47.08-.94.17-1.4.27l-.59,1-1.58.47-.36,1c-.08.92-.16,1.84-.25,2.75l.44.79c-.12.79-.23,1.58-.34,2.36l-.68.77-.89.29-.49.09-.33.69-.55-.08c-.13.33-.26.65-.4,1-.05.49-.11,1-.17,1.45l-.55.77-.85-.12c-.08.38-.16.76-.23,1.13l-.6.33-.29.81-.93.79-.51.61-.83.32-.33.45c-.88,0-1.76,0-2.63.05l-1.68-.1-.51-.69.27-.66-.51-1c-.08-.24-.15-.48-.23-.72l-.69-.56c0-.24-.05-.47-.08-.71l-.45-.64.15-1.72-.57-.6c-.13-.24-.26-.48-.4-.72l-.52-.41c.09-.33.18-.67.28-1l-.64-.68.39-1,.77-.65.06-.58.6,0,.09-1.51-.77-.29,0-.54c0-.14,0-.27,0-.41s0-.29-.05-.38-.35,0-.44-.15,0-.27,0-.38,0-.24-.18-.29-.29,0-.34-.08.14-.58-.16-.66-.25,0-.31-.17,0-.2-.05-.3,0-.24-.16-.3a2.23,2.23,0,0,0-.45,0c0-.17,0-.34,0-.52v-.63c0-.48,0-1,0-1.44V325c0-.07,0-.28,0-.34s-.4.06-.48-.07,0-.24,0-.33-.42,0-.48.05,0,.24-.07.31-.28,0-.39,0a2.2,2.2,0,0,1-.51,0c-.11-.05,0-.21-.06-.3s0-.07-.1-.09l-.25,0c-.21,0-.18-.06-.23-.22s0-.21-.17-.24-.29.07-.32-.09,0-.2-.18-.22-.47,0-.69,0-.58,0-.7.07,0,.24,0,.31-.27.06-.38.07a1.68,1.68,0,0,0-.5,0c-.21.07-.1.2-.17.32s-.17,0-.31.07,0,.42-.28.45-.51,0-.76,0-.19,0-.2-.17c0-.3-.14-.19-.46-.15-.14,0-.29,0-.43,0l-.87.07-.89.06a6.19,6.19,0,0,0-.86,0,3.15,3.15,0,0,1-.43,0c-.19,0-.23-.08-.27-.21s0-.2-.25-.17-.26,0-.28-.12,0-.22-.21-.22-.28.08-.32-.08.05-.24-.14-.25a3,3,0,0,0-.42,0c0-.17,0-.55-.14-.68s-.29,0-.37-.09,0-.29-.12-.33-.31.1-.42,0,0-.24-.09-.31-.26,0-.4,0-.11-.25-.23-.31-.32,0-.46,0a.84.84,0,0,0-.08-.27.91.91,0,0,0-.35-.07c-.17,0-.24.08-.28-.06a2.66,2.66,0,0,1,0-.28l-.07-.61c0-.13,0-.5-.09-.58L282.6,317l-.57-.23-.15-1.3.55-.41.64-.27c0-.25-.06-.5-.08-.75l.8-.52c0-.29,0-.57,0-.86l.82-.09,0-.63,1.17-.26c0-.14,0-.29,0-.43l.6-.15-.06-1.51.9-.58.83-.2.26-.49.45,0c-.05-.35-.11-.69-.16-1l-1.68,0-.47-.95c-.05-.82-.09-1.63-.13-2.44l.43-.53c1.31-.12,2.62-.23,3.92-.31l.62.28.5-.21c-.06-.37-.13-.75-.19-1.12l-.56-.3-.35-.27-1.18.08-.6-.32c-.05-.28-.1-.57-.16-.85l-.59-.13c0-.19.09-.37.14-.55l.7-.28c.07-.28.13-.57.19-.86l.89-.28.27-.77-1.21.08-.67-.06-.36.83c0,.26,0,.52,0,.78l-.78.13-.43.32-1.59.33-.42-.44-.54-.21.55-.46c0-.32,0-.64-.05-1l.66-.06c.05-.16.09-.31.14-.46l1-.1.29-.36.49,0,0-.47-.87.08.12-.73.56,0c0-.13.06-.27.08-.4l1.66-.13c.06-.14.12-.27.19-.41l1.13-.07c0-.17-.05-.35-.07-.52l.38-.2.23-.46,1.21-.06c0,.28.09.56.14.84l-1.12.35c0,.15,0,.29-.05.44.18.27.36.54.53.82l-.15.47.54.35c.05.17.11.34.16.5l.88.27.12.51.66,0,.25.48-1,.71-2,.43-1,.07.44.61,1,0,1.05-.16.74-.37.61-.14c.16-.12.32-.24.47-.37l.73,0c0-.2,0-.39.05-.58l.58-.26c0-.23,0-.46,0-.69l1.7-.23.38-.47.52-.16c0-.37-.09-.74-.14-1.11l-1.37-.23-.15-.28H296v-.44l-.57-.29c.05-.38.1-.77.16-1.15l.49-.23,0-.42.89,0c.05-.15.09-.31.14-.47h1.07l.43-.35c.41,0,.82,0,1.23,0,.16-.18.33-.36.5-.53l1.23,0c0-.13.07-.26.11-.38l.62-.39-.2-.71.88-.42.88-.18.52-.4.88,0,.63-.24c.79,0,1.59,0,2.38,0l.53-.26,2.05.16.58-.38,2.24.21.36.53,1.2.2.6.27.54.46,1.67.26,1.05.48c.63.14,1.27.27,1.9.42l1.55.25.39.4.51.27c.09.2.17.4.25.6l1,.5.53-.35c0-.17.05-.34.08-.51s0-.32.07-.48l1.29.27.52.49c.15.14.3.28.44.43l1,.34.47-.55,1.47.12c1.79.38,3.58.79,5.37,1.25l.8.3c0-.16.07-.33.11-.49l-1.14-.51-1.32-.34-1.36-.34c0-.14-.07-.28-.11-.41l-1.44-.36v-.39l-.75-.44.18-.33,1.12.26c.09-.11.17-.23.26-.35l.1-.54.9,0,.59-.24,2,.5.84-.15.95.09.23-.34q2.61.71,5.2,1.52l.32-.18c.53.16,1.06.34,1.59.51l.5.47-.06.81c-.75-.09-1.49-.17-2.24-.24-1.21-.36-2.43-.71-3.65-1l-.34.13-1.3,0-.39.19-1-.16-.38.18-1-.22c0,.14,0,.28,0,.43l.66.42,1.12.27.8.5,1.7.55.93.57.7.7,1,.38c0-.35.07-.69.11-1l.74,0,.48-.24.71.09c0-.14,0-.29,0-.43,1.17.36,2.34.73,3.5,1.12.1.13.19.27.28.4l.17.07,1,.06.88.32.25.33L352,297l1.55,1.44.84.44.33-.41-1-.7-.66-.78c.05-.12.1-.24.16-.36.82.31,1.65.63,2.47,1l.49-.15.52-.21c1.27.53,2.53,1.08,3.79,1.65l.37-.24c1.8.83,3.57,1.7,5.34,2.6l.35-.24.9.56.18-.42-1.25-.93-.63-.51c-.75-.38-1.51-.75-2.27-1.11l-.49-.65-1.34-.62-.77-.72.32-.3.82.37.26-.24,1,.46c.05-.18.11-.36.16-.55.75.35,1.49.71,2.23,1.08l.36.56,1.16.7.5.92.72.52.48.67,1.45.67,1.95,1.3.59.78c0,.15.05.31.08.47s.31.32.46.49l1.21.64,1.15.94,1.33.85c.19.28.39.56.58.85l.3.79-.79-.26-.7-.33c0,.12-.07.25-.1.37,1.4.88,2.78,1.79,4.16,2.72l.24.7,2,1.14.4-.24,1.31.88,2.4,1.83.45.94-.48.79s-.09,1.43,1.63,1.09l1,.41c1.15.94,2.29,1.89,3.42,2.87l.93-.32-1-1-.3-.71-.38-.52.49-.46.71.46.5,0q2,1.76,4,3.59l.41.61c.86.68,1.71,1.37,2.56,2.08.24.32.47.65.7,1l.57.67-.44.58c-1.14-1-2.3-2-3.46-3l-1-.85-.44.41q1.85,1.77,3.66,3.6c.07.21.15.42.23.63l.79.76-.17.22c1.59,1.58,3.15,3.21,4.68,4.87l.18,1,2,1.67q1.28,1.29,2.52,2.61c-.06.2-.13.4-.2.6.52.43,1,.87,1.54,1.31l.68.24c1.15,1.45,2.27,2.93,3.38,4.43.58,1,1.15,2,1.71,3,.28.72.56,1.45.82,2.18l.71,1.65S419.2,354.92,417.85,353.32Z" transform="translate(-81.52 -211.11)"/><path class="cls-1" d="M346.14,457.18l-.08-.08Z" transform="translate(-81.52 -211.11)"/><path class="cls-1" d="M307.56,479c.27.1.61.24,1,.41a9.83,9.83,0,0,1,1.16.64,6.61,6.61,0,0,1,1.14.94,5.94,5.94,0,0,1,.93,1.27l.18.37,0,.08v0l0,.05.07.21.15.44.08.39c0,.13.06.25.08.39l.06.44a8.46,8.46,0,0,1,.09.88l0,.45,0,.45c0,.29,0,.59,0,.89s0,.59,0,.89,0,.58,0,.87c0,1.14,0,2.22,0,3.14s0,1.69,0,2.24c0,.27,0,.49,0,.63s0,.23,0,.23.12-.29.29-.81c.08-.26.18-.57.27-.94s.21-.78.31-1.24a28.27,28.27,0,0,0,.51-3.14c.05-.59.1-1.19.1-1.81,0-.31,0-.62,0-.94v-.47l0-.49c0-.31-.05-.63-.11-1l-.09-.48c0-.16-.08-.34-.12-.51s-.1-.33-.14-.5l-.18-.43-.09-.21,0,0,0,0c0-.09,0,0,0-.05h0l-.06-.11a3.12,3.12,0,0,0-.27-.43,6.14,6.14,0,0,0-1.32-1.45,6.85,6.85,0,0,0-1.53-.91,7,7,0,0,0-1.41-.44,8,8,0,0,0-1.1-.18,6.94,6.94,0,0,0-.71,0h-.25l.24.09C307.05,478.76,307.28,478.85,307.56,479Z" transform="translate(-81.52 -211.11)"/><path class="cls-1" d="M242.62,419.21c3.15,1,5.15,3.18,7.86,5s5.05,3.24,7,5.75a37.81,37.81,0,0,1,5.25,9s.46-.72.49-.73,0,0,0-.06h0c-.2-.75-.42-1.5-.67-2.24s-.58-1.46-.87-2.2a25.74,25.74,0,0,0-2.43-4.17,18.78,18.78,0,0,0-1.53-1.93,24.14,24.14,0,0,0-1.71-1.8,30.74,30.74,0,0,0-3.93-3.14,35,35,0,0,0-4.45-2.46c-.77-.36-1.58-.64-2.36-1s-1.62-.53-2.42-.78-1.65-.42-2.47-.62l-2.5-.43-2.51-.25c-.84-.06-1.68-.08-2.52-.09h0s0,0,0,0a0,0,0,0,0,0,.05A46.84,46.84,0,0,1,242.62,419.21Z" transform="translate(-81.52 -211.11)"/><path class="cls-1" d="M318.92,461.53a7.48,7.48,0,0,0-3,.12c3.08.42,5.2,2.36,6.87,4.76,2.2,3.16,4.16,6.49,6,9.45C328.89,471.57,323.25,463.06,318.92,461.53Z" transform="translate(-81.52 -211.11)"/><path class="cls-1" d="M286.72,460.61c-.2.56.26,1.21,1,1.45a1.39,1.39,0,0,0,1.78-.56c.2-.56-.26-1.21-1-1.45A1.39,1.39,0,0,0,286.72,460.61Z" transform="translate(-81.52 -211.11)"/><path class="cls-1" d="M285.21,462.83a4.57,4.57,0,0,0,1.19.71l.32.11c.1,0,.18.05.27.08s.4.08.59.11a4,4,0,0,0,1.75-.18,2,2,0,0,0,.43-.19l.14-.08-.17,0h-.46a4.93,4.93,0,0,1-1.52-.28,3.3,3.3,0,0,1-.43-.19c-.08,0-.18-.07-.24-.11l-.2-.12a3.76,3.76,0,0,1-.79-.64,2.77,2.77,0,0,1-.52-.82,1.6,1.6,0,0,1-.07-.86l0-.1,0-.05v0l.06-.14c0-.05,0-.05.05-.08a.74.74,0,0,1,.12-.16,1.22,1.22,0,0,1,.15-.17,2.31,2.31,0,0,1,.84-.48,4.2,4.2,0,0,1,2-.14l.11,0,.12,0,.21.05a3.79,3.79,0,0,1,.4.12,5,5,0,0,1,.63.26l.4.22.14.09-.08-.13a2.1,2.1,0,0,0-.28-.36,2.74,2.74,0,0,0-.55-.49,4.4,4.4,0,0,0-.39-.26l-.23-.12-.11,0-.14-.05a4.31,4.31,0,0,0-2.6-.24,3.33,3.33,0,0,0-1.4.66,1.92,1.92,0,0,0-.29.28,1.9,1.9,0,0,0-.26.34l-.1.18-.07.14v.06h0l0,.05,0,.1-.06.19a2.46,2.46,0,0,0,.17,1.54A3.4,3.4,0,0,0,285.21,462.83Z" transform="translate(-81.52 -211.11)"/><path class="cls-1" d="M312.12,519.5a2,2,0,0,0-.12.39l0,.14h0v.14a2.19,2.19,0,0,0,0,.4,2.07,2.07,0,0,0,.79,1.25,2.49,2.49,0,0,0,1,.45,2.53,2.53,0,0,0,1.19,0,2.3,2.3,0,0,0,1.07-.63,1.94,1.94,0,0,0,.52-1.09,1.93,1.93,0,0,0-.28-1.19,2.3,2.3,0,0,0-.91-.84,2.52,2.52,0,0,0-.58-.21c-.11,0-.2,0-.29,0l-.3,0a2.56,2.56,0,0,0-1,.24A2,2,0,0,0,312.12,519.5Z" transform="translate(-81.52 -211.11)"/><path class="cls-1" d="M276.87,491a7.94,7.94,0,0,0,1.06,2.19,7.36,7.36,0,0,0,.94,1.16c.2.21.37.35.54.51l0,0,0,0,0,0,.08.07.16.12a3.92,3.92,0,0,1,.32.25,15.76,15.76,0,0,0,3,1.65,25.58,25.58,0,0,0,3.41,1.09c1.18.29,2.38.54,3.57.77,2.4.44,4.8.75,7.06.94s4.35.3,6.16.35c3.6.11,6,0,6,0s.11,0,.11-.11,0-.09-.11-.1-.6,0-1.64-.11-2.53-.21-4.31-.41c-.89-.09-1.86-.21-2.87-.34s-2.08-.29-3.18-.46-2.24-.39-3.38-.6-2.3-.47-3.44-.75-2.26-.62-3.33-1-2.1-.79-3.07-1.2a25.17,25.17,0,0,1-2.65-1.31l-.28-.18-.15-.09-.07,0,0,0h0s0,0,0,0h0c-.19-.14-.4-.29-.53-.4a7.39,7.39,0,0,1-.88-.79,10.13,10.13,0,0,1-1.3-1.7c-.33-.55-.59-1.06-.8-1.49s-.35-.78-.46-1l-.15-.36h0a.12.12,0,0,0-.15-.06.11.11,0,0,0-.07.09v.4a10.75,10.75,0,0,0,.06,1.12A9.82,9.82,0,0,0,276.87,491Z" transform="translate(-81.52 -211.11)"/><path class="cls-1" d="M315.17,489.75c.07.43.12.67.12.67s.06-.24.13-.66c0-.21.08-.47.12-.76s.11-.63.16-1,.11-.74.18-1.16.13-.83.21-1.28.16-.89.26-1.34.2-.92.34-1.36a8.91,8.91,0,0,1,.48-1.26,3.89,3.89,0,0,1,.7-1.07,4.39,4.39,0,0,1,.94-.78,3.81,3.81,0,0,1,.52-.29,3.59,3.59,0,0,1,.53-.24,8.7,8.7,0,0,1,1-.33c.31-.08.58-.15.81-.19.45-.09.73-.12.73-.12l-.2,0-.56-.07a8.24,8.24,0,0,0-.88,0c-.17,0-.35,0-.54,0a4.28,4.28,0,0,0-.59.1,6.08,6.08,0,0,0-1.31.4,4.87,4.87,0,0,0-1.27.83,2.57,2.57,0,0,0-.29.28l-.25.31-.07.08v0h0v0h0l0,0-.1.15-.1.16-.09.18a6.75,6.75,0,0,0-.59,1.43,11.14,11.14,0,0,0-.34,1.47c-.08.49-.14,1-.17,1.43s0,.91,0,1.34,0,.83,0,1.2C315,488.7,315.1,489.32,315.17,489.75Z" transform="translate(-81.52 -211.11)"/><path class="cls-1" d="M231.84,318.53c-.28.13-.8.33-.72.61s.2.28.24.46,0,.23.25.12.26-.15.38-.22l.77-.43c.44-.25.92-.45,1.33-.74.21-.15.79-.39.75-.62s-.13-.18-.18-.27-.07-.23-.21-.26-.25.1-.41.21-.24,0-.3-.06-.07-.2-.25-.15a2.05,2.05,0,0,0-.46.25l-.5.27a2.16,2.16,0,0,0-.47.28c-.11.12,0,.19,0,.28S232,318.43,231.84,318.53Z" transform="translate(-81.52 -211.11)"/><path class="cls-1" d="M327.77,304.31l-.88.3-1.29.28-.15.87,1.09.81c.14.4.27.79.41,1.18l-.84.5-.09.93,1.2.8,1.48.34,1-.09c.06-.32.12-.63.19-1l-.42-.65.09-1.52-.84-.61c0-.23-.05-.46-.08-.69l.72-.34.87-.38-.68-.62Z" transform="translate(-81.52 -211.11)"/><path class="cls-1" d="M316,308.79l-1.09.4-.42-1-.66-.66-1.27.21-1.2.24-.93-.75c0-.48,0-.95,0-1.43,0,0,1.24-.6.88-1.08,0,0-1.57-.54-2.29.25,0,.29,0,.57,0,.85l.3.56c-.07.33-.13.65-.2,1l-.86-.06-1.39-.87c0-.21,0-.41,0-.62l-.43-.83c0-.34,0-.68,0-1l-1.38-.61-1.6-.9c-.41-.26-.83-.5-1.25-.75,0,0-2.09.31-.83,1.36.69.2,1.37.41,2.05.63l.66.87s1.91.26.6,1.58l-1.35.61-1.48-.22c-.09-.24-.17-.49-.25-.74l1.18,0,.59-.44-.63-.69-1-.43-1.19-.37-.93-.1c-.05.48-.1.95-.14,1.42l-1.39,0v-.8l.6-.4c.07-.28.14-.57.2-.85s.27-.35.4-.53l-1.74.1-1.94.34s-1.07.39-1.06.52a10.25,10.25,0,0,1-.37,1.08s-1,.08-1.19.14-.5.73-.5.73l-.77.67-1.47.71s-.65.18-.73.45a1.91,1.91,0,0,0,0,.76c.85-.07,1.69-.12,2.54-.17,0-.26,0-.53,0-.79l1.47-.07c0-.18,0-.36,0-.54l2.56-.08,1.9,0,1.78.22.64.63c.11.28.22.57.32.85l1.22.6,1.36,0,.63.6.43.55,1.48.07.55-.86,1.05-.29,1.68.13.47.7,1.34.3,1.53.24,1.23,0,1.15.23h1l.77-.47c.15-.32.3-.65.44-1l.09-.75-.9-.26C316.18,308.28,316.09,308.54,316,308.79Z" transform="translate(-81.52 -211.11)"/><path class="cls-1" d="M353.79,332.66l1,.57c0-.11,0-.23,0-.34Z" transform="translate(-81.52 -211.11)"/><path class="cls-1" d="M299.8,296l.7.31,1,.64.83.28,2.84.1,2.16.11.51-.54.06-1,1.12-.28,1.47.38.05-.71,1.34.12,1.59-.37,1.08-.16-.58-.69-2,0-1.58.17-1.91-.05c0-.34,0-.68.05-1l.68-.8,1.09.09.83-.6.48-.63-1.73-.14c-.41.06-.83.11-1.24.18l-.53.41-1.38.4-1,.53-.39,1,1.11.52-.3.59-1,.17-.09.62-.86.5c-.63,0-1.26,0-1.89-.06l-.48-.59-1-.19c0-.31,0-.62,0-.93h-1.49l-.84.62v.84Z" transform="translate(-81.52 -211.11)"/><path class="cls-1" d="M246.86,548.62c-.07,1-.13,2-.18,3a144.95,144.95,0,0,0,97.73,2.08,11.29,11.29,0,0,0,.65-1.41,139.91,139.91,0,0,1-98.2-3.62Z" transform="translate(-81.52 -211.11)"/><polygon class="cls-1" points="250.71 277.78 250.71 277.78 250.71 277.78 250.71 277.78 250.71 277.78"/><polygon class="cls-1" points="249.95 274.87 249.95 274.87 249.95 274.87 249.95 274.87 249.95 274.87"/></svg>