<svg id="Слой_1" data-name="Слой 1" xmlns="http://www.w3.org/2000/svg" viewBox="0 0 321.13 110.11"><defs><style>.cls-1{fill:#fff;}</style></defs><title>Logo</title><path class="cls-1" d="M222.87,391.36l3.87-1.43-.89-2.42-.51.19-3.1-2.63.86-.32.93-1.94-1.9-5.13-1.87-1.06-7.55,2.79.92,2.46,1-.35,3.31,8.94-1,.36.9,2.41,4.67-1.73-.89-2.41-.88.32-1.19-3.22.12,0,2.9,2.58-.56.21Zm-4.3-7.75-1.16-3.12,2.21-.81,1.15,3.11Z" transform="translate(-137.63 -365.93)"/><polygon class="cls-1" points="91.42 12.41 90.93 10.71 91.82 10.45 94.47 19.63 93.54 19.89 94.25 22.37 98.97 21.01 98.25 18.53 97.27 18.82 94.63 9.64 95.52 9.39 96.01 11.09 98.29 10.43 97.09 6.27 87.94 8.91 89.14 13.07 91.42 12.41"/><polygon class="cls-1" points="102.92 7.49 104.88 16.81 103.86 17.02 104.39 19.54 109.28 18.52 108.75 16 107.7 16.22 106.97 12.75 109.19 12.29 108.66 9.75 106.44 10.22 105.74 6.89 108.6 6.29 108.93 7.87 111.68 7.29 110.81 3.13 101.38 5.11 101.92 7.7 102.92 7.49"/><polygon class="cls-1" points="116.35 4.88 117.74 14.34 116.67 14.5 117.05 17.04 121.99 16.32 121.62 13.77 120.59 13.92 120.08 10.42 119.21 4.5 120.24 4.34 119.86 1.73 114.93 2.45 115.31 5.03 116.35 4.88"/><polygon class="cls-1" points="134.65 13.72 134.22 8.71 132.72 7.43 128.85 7.76 129.07 10.4 131.44 10.2 131.65 12.72 127.94 13.04 127.14 3.54 130.89 3.23 131.01 4.74 133.87 4.5 133.63 1.66 132.19 0.46 125.3 1.04 124.18 2.33 125.2 14.46 126.7 15.72 133.43 15.16 134.65 13.72"/><polygon class="cls-1" points="143.27 12.21 142.23 12.2 142.26 8.66 144.87 8.68 144.84 12.22 143.74 12.21 143.73 14.79 148.73 14.83 148.75 12.25 147.72 12.24 147.75 8.7 147.8 2.72 148.82 2.73 148.84 0.08 143.85 0.04 143.84 2.69 144.91 2.7 144.89 5.98 142.28 5.96 142.3 2.68 143.34 2.68 143.36 0.04 138.38 0 138.36 2.61 139.42 2.62 139.35 12.18 138.31 12.17 138.25 14.75 143.25 14.79 143.27 12.21"/><polygon class="cls-1" points="155.15 2.9 156.08 2.96 155.44 12.48 154.48 12.42 154.31 14.99 159.21 15.31 159.38 12.75 158.36 12.68 159 3.15 159.92 3.22 159.81 4.98 162.17 5.14 162.46 0.82 152.96 0.19 152.67 4.5 155.03 4.66 155.15 2.9"/><rect class="cls-1" x="303.22" y="379.14" width="3.07" height="2.77" transform="translate(-248.3 269.72) rotate(-82.87)"/><polygon class="cls-1" points="179.57 18.13 181.12 17.05 181.81 13.28 178.97 12.77 178.5 15.31 175.24 14.72 176.95 5.35 180.23 5.95 179.96 7.44 182.78 7.95 183.29 5.15 182.22 3.62 175.82 2.45 174.41 3.4 172.22 15.37 173.34 16.99 179.57 18.13"/><path class="cls-1" d="M328.91,386.83l1.65-1,3-11.63-1-1.68-5.87-1.5-1.72,1-3,11.75.85,1.45ZM327.43,374l3,.78L328.08,384l-3-.78Z" transform="translate(-137.63 -365.93)"/><polygon class="cls-1" points="204.43 20 205.79 9.94 200.71 8.15 199.83 10.67 200.86 11.03 197.72 19.99 196.72 19.64 195.86 22.08 200.58 23.74 201.44 21.29 200.56 20.98 202.36 15.87 201.82 24.17 203.65 24.82 208.45 18.01 206.66 23.12 205.94 22.87 205.07 25.32 209.45 26.85 210.31 24.41 209.48 24.12 212.63 15.16 213.45 15.45 214.34 12.94 209.5 11.24 204.43 20"/><polygon class="cls-1" points="87.7 105.12 98.72 105.12 98.72 80 121.69 80 121.69 70.02 98.72 70.02 98.72 54.96 122.32 54.96 122.32 44.9 87.7 44.9 87.7 105.12"/><polygon class="cls-1" points="168.56 53.67 168.56 96.35 177.34 105.12 202.54 105.12 202.54 107.1 213.56 110.11 213.56 70.02 191.1 70.02 191.1 80 202.54 80 202.54 95.06 181.9 95.06 179.57 92.82 179.57 57.2 181.9 54.96 202.54 54.96 202.54 64 213.56 64 213.56 44.9 177.34 44.9 168.56 53.67"/><polygon class="cls-1" points="252.44 65.29 230.24 74.41 230.24 44.9 219.23 44.9 219.23 105.12 230.24 105.12 230.24 85.34 252.44 76.22 252.44 105.12 263.54 105.12 263.54 44.9 252.44 44.9 252.44 65.29"/><polygon class="cls-1" points="148.99 54.96 159.18 54.96 169.25 44.9 159.83 44.9 127.13 44.9 127.13 54.96 137.97 54.96 137.97 95.06 127.13 95.06 127.13 105.12 159.83 105.12 159.83 95.06 148.99 95.06 148.99 54.96"/><path class="cls-1" d="M182.62,440.17V419.61l-8.77-8.78H137.63v60.23h11V454l12.91-5.25L172,471.06h12.21l-12.47-26.5Zm-11-6.45-23,9.38V420.9h20.65l2.32,2.24Z" transform="translate(-137.63 -365.93)"/><polygon class="cls-1" points="53.68 54.96 61.48 54.96 61.48 105.12 72.49 105.12 72.49 54.96 82.88 54.96 82.88 44.9 43.61 44.9 53.68 54.96"/><polygon class="cls-1" points="268.62 44.9 268.62 54.96 279 54.96 279 105.12 290.02 105.12 290.02 54.96 297.81 54.96 307.88 44.9 268.62 44.9"/><path class="cls-1" d="M450.36,416.22v-4.39h-1.57v-.89H453v.89h-1.56v4.39Z" transform="translate(-137.63 -365.93)"/><path class="cls-1" d="M453.66,416.22v-5.28h1.59l1,3.6,1-3.6h1.59v5.28h-1v-4.16l-1,4.16h-1l-1-4.16v4.16Z" transform="translate(-137.63 -365.93)"/></svg>